solid 
 facet normal -1.000000e+00  0.000000e+00  0.000000e+00
   outer loop
     vertex  0.000000e+00  4.000000e+00  5.000000e-04
     vertex  0.000000e+00  3.800000e+01  4.645000e+00
     vertex  0.000000e+00  3.800000e+01  5.000000e-04
   endloop
 endfacet
 facet normal -1.000000e+00  0.000000e+00  0.000000e+00
   outer loop
     vertex  0.000000e+00  4.000000e+00  4.645000e+00
     vertex  0.000000e+00  3.800000e+01  4.645000e+00
     vertex  0.000000e+00  4.000000e+00  5.000000e-04
   endloop
 endfacet
 facet normal  7.071068e-01 -8.295144e-16  7.071068e-01
   outer loop
     vertex  2.148500e+00  3.645000e+00  2.496500e+00
     vertex  0.000000e+00  4.000000e+00  4.645000e+00
     vertex  1.578427e-02  3.645000e+00  4.629216e+00
   endloop
 endfacet
 facet normal  7.071068e-01  7.388670e-17  7.071068e-01
   outer loop
     vertex  0.000000e+00  3.800000e+01  4.645000e+00
     vertex  0.000000e+00  4.000000e+00  4.645000e+00
     vertex  2.148500e+00  3.645000e+00  2.496500e+00
   endloop
 endfacet
 facet normal  7.071068e-01  8.295144e-16  7.071068e-01
   outer loop
     vertex  2.148500e+00  3.835500e+01  2.496500e+00
     vertex  1.578427e-02  3.835500e+01  4.629216e+00
     vertex  0.000000e+00  3.800000e+01  4.645000e+00
   endloop
 endfacet
 facet normal  7.071068e-01  9.046917e-17  7.071068e-01
   outer loop
     vertex  2.148500e+00  3.835500e+01  2.496500e+00
     vertex  0.000000e+00  3.800000e+01  4.645000e+00
     vertex  2.148500e+00  3.645000e+00  2.496500e+00
   endloop
 endfacet
 facet normal -9.990130e-01  4.441884e-02  0.000000e+00
   outer loop
     vertex  1.578427e-02  3.835500e+01  4.629216e+00
     vertex  0.000000e+00  3.800000e+01  5.000000e-04
     vertex  0.000000e+00  3.800000e+01  4.645000e+00
   endloop
 endfacet
 facet normal -9.936988e-01  1.119630e-01 -5.198428e-03
   outer loop
     vertex  1.578427e-02  3.835500e+01  4.629216e+00
     vertex  1.002884e-01  3.889008e+01  5.000000e-04
     vertex  0.000000e+00  3.800000e+01  5.000000e-04
   endloop
 endfacet
 facet normal -9.438696e-01  3.302742e-01 -5.398219e-03
   outer loop
     vertex  2.031567e-01  3.925856e+01  4.558470e+00
     vertex  3.961245e-01  3.973553e+01  5.000000e-04
     vertex  1.002884e-01  3.889008e+01  5.000000e-04
   endloop
 endfacet
 facet normal -9.790646e-01  2.034714e-01  5.647199e-03
   outer loop
     vertex  2.031567e-01  3.925856e+01  4.558470e+00
     vertex  1.002884e-01  3.889008e+01  5.000000e-04
     vertex  1.578427e-02  3.835500e+01  4.629216e+00
   endloop
 endfacet
 facet normal -8.467112e-01  5.320239e-01 -5.540264e-03
   outer loop
     vertex  5.949283e-01  4.009893e+01  4.513433e+00
     vertex  8.726741e-01  4.049396e+01  5.000000e-04
     vertex  3.961245e-01  3.973553e+01  5.000000e-04
   endloop
 endfacet
 facet normal -9.062110e-01  4.227850e-01  5.876953e-03
   outer loop
     vertex  5.949283e-01  4.009893e+01  4.513433e+00
     vertex  3.961245e-01  3.973553e+01  5.000000e-04
     vertex  2.031567e-01  3.925856e+01  4.558470e+00
   endloop
 endfacet
 facet normal -7.070957e-01  7.070957e-01 -5.592223e-03
   outer loop
     vertex  1.171573e+00  4.082843e+01  4.497954e+00
     vertex  1.506041e+00  4.112733e+01  5.000000e-04
     vertex  8.726741e-01  4.049396e+01  5.000000e-04
   endloop
 endfacet
 facet normal -7.844288e-01  6.201897e-01  6.010353e-03
   outer loop
     vertex  1.171573e+00  4.082843e+01  4.497954e+00
     vertex  8.726741e-01  4.049396e+01  5.000000e-04
     vertex  5.949283e-01  4.009893e+01  4.513433e+00
   endloop
 endfacet
 facet normal -5.320239e-01  8.467112e-01 -5.540264e-03
   outer loop
     vertex  1.901075e+00  4.140507e+01  4.513433e+00
     vertex  2.264465e+00  4.160388e+01  5.000000e-04
     vertex  1.506041e+00  4.112733e+01  5.000000e-04
   endloop
 endfacet
 facet normal -6.201897e-01  7.844288e-01  6.010352e-03
   outer loop
     vertex  1.901075e+00  4.140507e+01  4.513433e+00
     vertex  1.506041e+00  4.112733e+01  5.000000e-04
     vertex  1.171573e+00  4.082843e+01  4.497954e+00
   endloop
 endfacet
 facet normal -3.302742e-01  9.438696e-01 -5.398219e-03
   outer loop
     vertex  2.741437e+00  4.179684e+01  4.558470e+00
     vertex  3.109916e+00  4.189971e+01  5.000000e-04
     vertex  2.264465e+00  4.160388e+01  5.000000e-04
   endloop
 endfacet
 facet normal -4.227849e-01  9.062110e-01  5.876954e-03
   outer loop
     vertex  2.741437e+00  4.179684e+01  4.558470e+00
     vertex  2.264465e+00  4.160388e+01  5.000000e-04
     vertex  1.901075e+00  4.140507e+01  4.513433e+00
   endloop
 endfacet
 facet normal -1.119630e-01  9.936988e-01 -5.198428e-03
   outer loop
     vertex  3.645000e+00  4.198422e+01  4.629216e+00
     vertex  4.000000e+00  4.200000e+01  5.000000e-04
     vertex  3.109916e+00  4.189971e+01  5.000000e-04
   endloop
 endfacet
 facet normal -2.034714e-01  9.790646e-01  5.647198e-03
   outer loop
     vertex  3.645000e+00  4.198422e+01  4.629216e+00
     vertex  3.109916e+00  4.189971e+01  5.000000e-04
     vertex  2.741437e+00  4.179684e+01  4.558470e+00
   endloop
 endfacet
 facet normal -4.441884e-02  9.990130e-01  0.000000e+00
   outer loop
     vertex  4.000000e+00  4.200000e+01  4.645000e+00
     vertex  4.000000e+00  4.200000e+01  5.000000e-04
     vertex  3.645000e+00  4.198422e+01  4.629216e+00
   endloop
 endfacet
 facet normal  1.614996e-17  1.614996e-17 -1.000000e+00
   outer loop
     vertex  3.019144e+00  3.145896e+00  5.000000e-04
     vertex  1.506041e+00  8.726741e-01  5.000000e-04
     vertex  8.726741e-01  1.506041e+00  5.000000e-04
   endloop
 endfacet
 facet normal  8.958675e-17 -3.273107e-17 -1.000000e+00
   outer loop
     vertex  3.019144e+00  3.145896e+00  5.000000e-04
     vertex  3.145896e+00  3.019144e+00  5.000000e-04
     vertex  1.506041e+00  8.726741e-01  5.000000e-04
   endloop
 endfacet
 facet normal  1.747695e-17  2.781441e-17 -1.000000e+00
   outer loop
     vertex  3.297676e+00  2.923774e+00  5.000000e-04
     vertex  2.264465e+00  3.961245e-01  5.000000e-04
     vertex  1.506041e+00  8.726741e-01  5.000000e-04
   endloop
 endfacet
 facet normal  6.728613e-17 -1.569388e-17 -1.000000e+00
   outer loop
     vertex  3.297676e+00  2.923774e+00  5.000000e-04
     vertex  1.506041e+00  8.726741e-01  5.000000e-04
     vertex  3.145896e+00  3.019144e+00  5.000000e-04
   endloop
 endfacet
 facet normal  1.337822e-17  8.406093e-18 -1.000000e+00
   outer loop
     vertex  2.923774e+00  3.297676e+00  5.000000e-04
     vertex  8.726741e-01  1.506041e+00  5.000000e-04
     vertex  3.961245e-01  2.264465e+00  5.000000e-04
   endloop
 endfacet
 facet normal  8.266921e-17 -7.091964e-17 -1.000000e+00
   outer loop
     vertex  2.923774e+00  3.297676e+00  5.000000e-04
     vertex  3.019144e+00  3.145896e+00  5.000000e-04
     vertex  8.726741e-01  1.506041e+00  5.000000e-04
   endloop
 endfacet
 facet normal  7.542769e-18  2.639329e-18 -1.000000e+00
   outer loop
     vertex  2.864570e+00  3.466872e+00  5.000000e-04
     vertex  3.961245e-01  2.264465e+00  5.000000e-04
     vertex  1.002884e-01  3.109916e+00  5.000000e-04
   endloop
 endfacet
 facet normal  5.847934e-17 -1.019294e-16 -1.000000e+00
   outer loop
     vertex  2.864570e+00  3.466872e+00  5.000000e-04
     vertex  2.923774e+00  3.297676e+00  5.000000e-04
     vertex  3.961245e-01  2.264465e+00  5.000000e-04
   endloop
 endfacet
 facet normal  1.158153e-17  3.309812e-17 -1.000000e+00
   outer loop
     vertex  3.466872e+00  2.864570e+00  5.000000e-04
     vertex  3.109916e+00  1.002884e-01  5.000000e-04
     vertex  2.264465e+00  3.961245e-01  5.000000e-04
   endloop
 endfacet
 facet normal  4.826271e-17  1.523032e-17 -1.000000e+00
   outer loop
     vertex  3.466872e+00  2.864570e+00  5.000000e-04
     vertex  2.264465e+00  3.961245e-01  5.000000e-04
     vertex  3.297676e+00  2.923774e+00  5.000000e-04
   endloop
 endfacet
 facet normal  0.000000e+00 -0.000000e+00 -1.000000e+00
   outer loop
     vertex  3.645000e+00  2.844500e+00  5.000000e-04
     vertex  4.000000e+00  0.000000e+00  5.000000e-04
     vertex  3.109916e+00  1.002884e-01  5.000000e-04
   endloop
 endfacet
 facet normal -5.253015e-16  1.024266e-16 -1.000000e+00
   outer loop
     vertex  3.645000e+00  2.844500e+00  5.000000e-04
     vertex  3.109916e+00  1.002884e-01  5.000000e-04
     vertex  3.466872e+00  2.864570e+00  5.000000e-04
   endloop
 endfacet
 facet normal -0.000000e+00  0.000000e+00 -1.000000e+00
   outer loop
     vertex  2.844500e+00  3.645000e+00  5.000000e-04
     vertex  1.002884e-01  3.109916e+00  5.000000e-04
     vertex  0.000000e+00  4.000000e+00  5.000000e-04
   endloop
 endfacet
 facet normal  2.334212e-17 -1.197116e-16 -1.000000e+00
   outer loop
     vertex  2.844500e+00  3.645000e+00  5.000000e-04
     vertex  2.864570e+00  3.466872e+00  5.000000e-04
     vertex  1.002884e-01  3.109916e+00  5.000000e-04
   endloop
 endfacet
 facet normal  0.000000e+00  0.000000e+00 -1.000000e+00
   outer loop
     vertex  3.800000e+01  0.000000e+00  5.000000e-04
     vertex  4.000000e+00  0.000000e+00  5.000000e-04
     vertex  3.645000e+00  2.844500e+00  5.000000e-04
   endloop
 endfacet
 facet normal  0.000000e+00  0.000000e+00 -1.000000e+00
   outer loop
     vertex  2.844500e+00  3.835500e+01  5.000000e-04
     vertex  0.000000e+00  4.000000e+00  5.000000e-04
     vertex  0.000000e+00  3.800000e+01  5.000000e-04
   endloop
 endfacet
 facet normal -0.000000e+00  0.000000e+00 -1.000000e+00
   outer loop
     vertex  2.844500e+00  3.835500e+01  5.000000e-04
     vertex  0.000000e+00  3.800000e+01  5.000000e-04
     vertex  1.002884e-01  3.889008e+01  5.000000e-04
   endloop
 endfacet
 facet normal  0.000000e+00 -0.000000e+00 -1.000000e+00
   outer loop
     vertex  2.844500e+00  3.835500e+01  5.000000e-04
     vertex  2.844500e+00  3.645000e+00  5.000000e-04
     vertex  0.000000e+00  4.000000e+00  5.000000e-04
   endloop
 endfacet
 facet normal -0.000000e+00  0.000000e+00 -1.000000e+00
   outer loop
     vertex  3.835500e+01  2.844500e+00  5.000000e-04
     vertex  3.800000e+01  0.000000e+00  5.000000e-04
     vertex  3.645000e+00  2.844500e+00  5.000000e-04
   endloop
 endfacet
 facet normal  0.000000e+00 -0.000000e+00 -1.000000e+00
   outer loop
     vertex  3.835500e+01  2.844500e+00  5.000000e-04
     vertex  3.889008e+01  1.002884e-01  5.000000e-04
     vertex  3.800000e+01  0.000000e+00  5.000000e-04
   endloop
 endfacet
 facet normal -2.334212e-17 -1.197116e-16 -1.000000e+00
   outer loop
     vertex  2.864570e+00  3.853313e+01  5.000000e-04
     vertex  2.844500e+00  3.835500e+01  5.000000e-04
     vertex  1.002884e-01  3.889008e+01  5.000000e-04
   endloop
 endfacet
 facet normal -7.542769e-18  2.639329e-18 -1.000000e+00
   outer loop
     vertex  2.864570e+00  3.853313e+01  5.000000e-04
     vertex  1.002884e-01  3.889008e+01  5.000000e-04
     vertex  3.961245e-01  3.973553e+01  5.000000e-04
   endloop
 endfacet
 facet normal  5.253015e-16  1.024266e-16 -1.000000e+00
   outer loop
     vertex  3.853313e+01  2.864570e+00  5.000000e-04
     vertex  3.889008e+01  1.002884e-01  5.000000e-04
     vertex  3.835500e+01  2.844500e+00  5.000000e-04
   endloop
 endfacet
 facet normal -1.158153e-17  3.309812e-17 -1.000000e+00
   outer loop
     vertex  3.853313e+01  2.864570e+00  5.000000e-04
     vertex  3.973553e+01  3.961245e-01  5.000000e-04
     vertex  3.889008e+01  1.002884e-01  5.000000e-04
   endloop
 endfacet
 facet normal -5.847934e-17 -1.019294e-16 -1.000000e+00
   outer loop
     vertex  2.923774e+00  3.870232e+01  5.000000e-04
     vertex  2.864570e+00  3.853313e+01  5.000000e-04
     vertex  3.961245e-01  3.973553e+01  5.000000e-04
   endloop
 endfacet
 facet normal -1.337822e-17  8.406093e-18 -1.000000e+00
   outer loop
     vertex  2.923774e+00  3.870232e+01  5.000000e-04
     vertex  3.961245e-01  3.973553e+01  5.000000e-04
     vertex  8.726741e-01  4.049396e+01  5.000000e-04
   endloop
 endfacet
 facet normal -1.747695e-17  2.781441e-17 -1.000000e+00
   outer loop
     vertex  3.870232e+01  2.923774e+00  5.000000e-04
     vertex  4.049396e+01  8.726741e-01  5.000000e-04
     vertex  3.973553e+01  3.961245e-01  5.000000e-04
   endloop
 endfacet
 facet normal -4.826271e-17  1.523032e-17 -1.000000e+00
   outer loop
     vertex  3.870232e+01  2.923774e+00  5.000000e-04
     vertex  3.973553e+01  3.961245e-01  5.000000e-04
     vertex  3.853313e+01  2.864570e+00  5.000000e-04
   endloop
 endfacet
 facet normal -8.266921e-17 -7.091964e-17 -1.000000e+00
   outer loop
     vertex  3.019144e+00  3.885410e+01  5.000000e-04
     vertex  2.923774e+00  3.870232e+01  5.000000e-04
     vertex  8.726741e-01  4.049396e+01  5.000000e-04
   endloop
 endfacet
 facet normal -6.728613e-17 -1.569388e-17 -1.000000e+00
   outer loop
     vertex  3.885410e+01  3.019144e+00  5.000000e-04
     vertex  4.049396e+01  8.726741e-01  5.000000e-04
     vertex  3.870232e+01  2.923774e+00  5.000000e-04
   endloop
 endfacet
 facet normal -8.958675e-17 -3.273107e-17 -1.000000e+00
   outer loop
     vertex  3.898086e+01  3.145896e+00  5.000000e-04
     vertex  4.049396e+01  8.726741e-01  5.000000e-04
     vertex  3.885410e+01  3.019144e+00  5.000000e-04
   endloop
 endfacet
 facet normal -1.614996e-17  1.614996e-17 -1.000000e+00
   outer loop
     vertex  4.112733e+01  1.506041e+00  5.000000e-04
     vertex  4.049396e+01  8.726741e-01  5.000000e-04
     vertex  3.898086e+01  3.145896e+00  5.000000e-04
   endloop
 endfacet
 facet normal -8.266921e-17 -7.091964e-17 -1.000000e+00
   outer loop
     vertex  4.112733e+01  1.506041e+00  5.000000e-04
     vertex  3.898086e+01  3.145896e+00  5.000000e-04
     vertex  3.907623e+01  3.297676e+00  5.000000e-04
   endloop
 endfacet
 facet normal -1.614996e-17  1.614996e-17 -1.000000e+00
   outer loop
     vertex  1.506041e+00  4.112733e+01  5.000000e-04
     vertex  3.019144e+00  3.885410e+01  5.000000e-04
     vertex  8.726741e-01  4.049396e+01  5.000000e-04
   endloop
 endfacet
 facet normal -8.958675e-17 -3.273107e-17 -1.000000e+00
   outer loop
     vertex  1.506041e+00  4.112733e+01  5.000000e-04
     vertex  3.145896e+00  3.898086e+01  5.000000e-04
     vertex  3.019144e+00  3.885410e+01  5.000000e-04
   endloop
 endfacet
 facet normal -6.728613e-17 -1.569388e-17 -1.000000e+00
   outer loop
     vertex  1.506041e+00  4.112733e+01  5.000000e-04
     vertex  3.297676e+00  3.907623e+01  5.000000e-04
     vertex  3.145896e+00  3.898086e+01  5.000000e-04
   endloop
 endfacet
 facet normal -1.337822e-17  8.406093e-18 -1.000000e+00
   outer loop
     vertex  4.160388e+01  2.264465e+00  5.000000e-04
     vertex  4.112733e+01  1.506041e+00  5.000000e-04
     vertex  3.907623e+01  3.297676e+00  5.000000e-04
   endloop
 endfacet
 facet normal -5.847934e-17 -1.019294e-16 -1.000000e+00
   outer loop
     vertex  4.160388e+01  2.264465e+00  5.000000e-04
     vertex  3.907623e+01  3.297676e+00  5.000000e-04
     vertex  3.913543e+01  3.466872e+00  5.000000e-04
   endloop
 endfacet
 facet normal -4.826271e-17  1.523032e-17 -1.000000e+00
   outer loop
     vertex  2.264465e+00  4.160388e+01  5.000000e-04
     vertex  3.466872e+00  3.913543e+01  5.000000e-04
     vertex  3.297676e+00  3.907623e+01  5.000000e-04
   endloop
 endfacet
 facet normal -1.747695e-17  2.781441e-17 -1.000000e+00
   outer loop
     vertex  2.264465e+00  4.160388e+01  5.000000e-04
     vertex  3.297676e+00  3.907623e+01  5.000000e-04
     vertex  1.506041e+00  4.112733e+01  5.000000e-04
   endloop
 endfacet
 facet normal  5.253015e-16  1.024266e-16 -1.000000e+00
   outer loop
     vertex  3.109916e+00  4.189971e+01  5.000000e-04
     vertex  3.645000e+00  3.915550e+01  5.000000e-04
     vertex  3.466872e+00  3.913543e+01  5.000000e-04
   endloop
 endfacet
 facet normal -1.158153e-17  3.309812e-17 -1.000000e+00
   outer loop
     vertex  3.109916e+00  4.189971e+01  5.000000e-04
     vertex  3.466872e+00  3.913543e+01  5.000000e-04
     vertex  2.264465e+00  4.160388e+01  5.000000e-04
   endloop
 endfacet
 facet normal -7.542769e-18  2.639329e-18 -1.000000e+00
   outer loop
     vertex  4.189971e+01  3.109916e+00  5.000000e-04
     vertex  4.160388e+01  2.264465e+00  5.000000e-04
     vertex  3.913543e+01  3.466872e+00  5.000000e-04
   endloop
 endfacet
 facet normal -2.334212e-17 -1.197116e-16 -1.000000e+00
   outer loop
     vertex  4.189971e+01  3.109916e+00  5.000000e-04
     vertex  3.913543e+01  3.466872e+00  5.000000e-04
     vertex  3.915550e+01  3.645000e+00  5.000000e-04
   endloop
 endfacet
 facet normal  0.000000e+00  0.000000e+00 -1.000000e+00
   outer loop
     vertex  4.200000e+01  4.000000e+00  5.000000e-04
     vertex  4.189971e+01  3.109916e+00  5.000000e-04
     vertex  3.915550e+01  3.645000e+00  5.000000e-04
   endloop
 endfacet
 facet normal  0.000000e+00  0.000000e+00 -1.000000e+00
   outer loop
     vertex  4.000000e+00  4.200000e+01  5.000000e-04
     vertex  3.645000e+00  3.915550e+01  5.000000e-04
     vertex  3.109916e+00  4.189971e+01  5.000000e-04
   endloop
 endfacet
 facet normal  0.000000e+00 -0.000000e+00 -1.000000e+00
   outer loop
     vertex  4.200000e+01  3.800000e+01  5.000000e-04
     vertex  4.200000e+01  4.000000e+00  5.000000e-04
     vertex  3.915550e+01  3.645000e+00  5.000000e-04
   endloop
 endfacet
 facet normal -0.000000e+00  0.000000e+00 -1.000000e+00
   outer loop
     vertex  4.200000e+01  3.800000e+01  5.000000e-04
     vertex  3.915550e+01  3.645000e+00  5.000000e-04
     vertex  3.915550e+01  3.835500e+01  5.000000e-04
   endloop
 endfacet
 facet normal  0.000000e+00 -0.000000e+00 -1.000000e+00
   outer loop
     vertex  3.800000e+01  4.200000e+01  5.000000e-04
     vertex  3.835500e+01  3.915550e+01  5.000000e-04
     vertex  3.645000e+00  3.915550e+01  5.000000e-04
   endloop
 endfacet
 facet normal -0.000000e+00  0.000000e+00 -1.000000e+00
   outer loop
     vertex  3.800000e+01  4.200000e+01  5.000000e-04
     vertex  3.645000e+00  3.915550e+01  5.000000e-04
     vertex  4.000000e+00  4.200000e+01  5.000000e-04
   endloop
 endfacet
 facet normal  0.000000e+00 -0.000000e+00 -1.000000e+00
   outer loop
     vertex  4.189971e+01  3.889008e+01  5.000000e-04
     vertex  4.200000e+01  3.800000e+01  5.000000e-04
     vertex  3.915550e+01  3.835500e+01  5.000000e-04
   endloop
 endfacet
 facet normal  2.334212e-17 -1.197116e-16 -1.000000e+00
   outer loop
     vertex  4.189971e+01  3.889008e+01  5.000000e-04
     vertex  3.915550e+01  3.835500e+01  5.000000e-04
     vertex  3.913543e+01  3.853313e+01  5.000000e-04
   endloop
 endfacet
 facet normal -5.253015e-16  1.024266e-16 -1.000000e+00
   outer loop
     vertex  3.889008e+01  4.189971e+01  5.000000e-04
     vertex  3.853313e+01  3.913543e+01  5.000000e-04
     vertex  3.835500e+01  3.915550e+01  5.000000e-04
   endloop
 endfacet
 facet normal -0.000000e+00  0.000000e+00 -1.000000e+00
   outer loop
     vertex  3.889008e+01  4.189971e+01  5.000000e-04
     vertex  3.835500e+01  3.915550e+01  5.000000e-04
     vertex  3.800000e+01  4.200000e+01  5.000000e-04
   endloop
 endfacet
 facet normal  5.847934e-17 -1.019294e-16 -1.000000e+00
   outer loop
     vertex  4.160388e+01  3.973553e+01  5.000000e-04
     vertex  3.913543e+01  3.853313e+01  5.000000e-04
     vertex  3.907623e+01  3.870232e+01  5.000000e-04
   endloop
 endfacet
 facet normal  7.542769e-18  2.639329e-18 -1.000000e+00
   outer loop
     vertex  4.160388e+01  3.973553e+01  5.000000e-04
     vertex  4.189971e+01  3.889008e+01  5.000000e-04
     vertex  3.913543e+01  3.853313e+01  5.000000e-04
   endloop
 endfacet
 facet normal  4.826271e-17  1.523032e-17 -1.000000e+00
   outer loop
     vertex  3.973553e+01  4.160388e+01  5.000000e-04
     vertex  3.870232e+01  3.907623e+01  5.000000e-04
     vertex  3.853313e+01  3.913543e+01  5.000000e-04
   endloop
 endfacet
 facet normal  1.158153e-17  3.309812e-17 -1.000000e+00
   outer loop
     vertex  3.973553e+01  4.160388e+01  5.000000e-04
     vertex  3.853313e+01  3.913543e+01  5.000000e-04
     vertex  3.889008e+01  4.189971e+01  5.000000e-04
   endloop
 endfacet
 facet normal  8.266921e-17 -7.091964e-17 -1.000000e+00
   outer loop
     vertex  4.112733e+01  4.049396e+01  5.000000e-04
     vertex  3.907623e+01  3.870232e+01  5.000000e-04
     vertex  3.898086e+01  3.885410e+01  5.000000e-04
   endloop
 endfacet
 facet normal  1.337822e-17  8.406093e-18 -1.000000e+00
   outer loop
     vertex  4.112733e+01  4.049396e+01  5.000000e-04
     vertex  4.160388e+01  3.973553e+01  5.000000e-04
     vertex  3.907623e+01  3.870232e+01  5.000000e-04
   endloop
 endfacet
 facet normal  6.728613e-17 -1.569388e-17 -1.000000e+00
   outer loop
     vertex  4.049396e+01  4.112733e+01  5.000000e-04
     vertex  3.885410e+01  3.898086e+01  5.000000e-04
     vertex  3.870232e+01  3.907623e+01  5.000000e-04
   endloop
 endfacet
 facet normal  8.958675e-17 -3.273107e-17 -1.000000e+00
   outer loop
     vertex  4.049396e+01  4.112733e+01  5.000000e-04
     vertex  3.898086e+01  3.885410e+01  5.000000e-04
     vertex  3.885410e+01  3.898086e+01  5.000000e-04
   endloop
 endfacet
 facet normal  1.747695e-17  2.781441e-17 -1.000000e+00
   outer loop
     vertex  4.049396e+01  4.112733e+01  5.000000e-04
     vertex  3.870232e+01  3.907623e+01  5.000000e-04
     vertex  3.973553e+01  4.160388e+01  5.000000e-04
   endloop
 endfacet
 facet normal  1.614996e-17  1.614996e-17 -1.000000e+00
   outer loop
     vertex  4.049396e+01  4.112733e+01  5.000000e-04
     vertex  4.112733e+01  4.049396e+01  5.000000e-04
     vertex  3.898086e+01  3.885410e+01  5.000000e-04
   endloop
 endfacet
 facet normal -9.990130e-01 -4.441884e-02  0.000000e+00
   outer loop
     vertex  1.578427e-02  3.645000e+00  4.629216e+00
     vertex  0.000000e+00  4.000000e+00  4.645000e+00
     vertex  0.000000e+00  4.000000e+00  5.000000e-04
   endloop
 endfacet
 facet normal -9.936988e-01 -1.119630e-01 -5.198428e-03
   outer loop
     vertex  1.578427e-02  3.645000e+00  4.629216e+00
     vertex  0.000000e+00  4.000000e+00  5.000000e-04
     vertex  1.002884e-01  3.109916e+00  5.000000e-04
   endloop
 endfacet
 facet normal -9.438696e-01 -3.302742e-01 -5.398219e-03
   outer loop
     vertex  2.031567e-01  2.741437e+00  4.558470e+00
     vertex  1.002884e-01  3.109916e+00  5.000000e-04
     vertex  3.961245e-01  2.264465e+00  5.000000e-04
   endloop
 endfacet
 facet normal -9.790646e-01 -2.034714e-01  5.647199e-03
   outer loop
     vertex  2.031567e-01  2.741437e+00  4.558470e+00
     vertex  1.578427e-02  3.645000e+00  4.629216e+00
     vertex  1.002884e-01  3.109916e+00  5.000000e-04
   endloop
 endfacet
 facet normal -8.467112e-01 -5.320239e-01 -5.540264e-03
   outer loop
     vertex  5.949283e-01  1.901075e+00  4.513433e+00
     vertex  3.961245e-01  2.264465e+00  5.000000e-04
     vertex  8.726741e-01  1.506041e+00  5.000000e-04
   endloop
 endfacet
 facet normal -9.062110e-01 -4.227850e-01  5.876953e-03
   outer loop
     vertex  5.949283e-01  1.901075e+00  4.513433e+00
     vertex  2.031567e-01  2.741437e+00  4.558470e+00
     vertex  3.961245e-01  2.264465e+00  5.000000e-04
   endloop
 endfacet
 facet normal -7.070957e-01 -7.070957e-01 -5.592223e-03
   outer loop
     vertex  1.171573e+00  1.171573e+00  4.497954e+00
     vertex  8.726741e-01  1.506041e+00  5.000000e-04
     vertex  1.506041e+00  8.726741e-01  5.000000e-04
   endloop
 endfacet
 facet normal -7.844288e-01 -6.201897e-01  6.010353e-03
   outer loop
     vertex  1.171573e+00  1.171573e+00  4.497954e+00
     vertex  5.949283e-01  1.901075e+00  4.513433e+00
     vertex  8.726741e-01  1.506041e+00  5.000000e-04
   endloop
 endfacet
 facet normal -5.320239e-01 -8.467112e-01 -5.540264e-03
   outer loop
     vertex  1.901075e+00  5.949283e-01  4.513433e+00
     vertex  1.506041e+00  8.726741e-01  5.000000e-04
     vertex  2.264465e+00  3.961245e-01  5.000000e-04
   endloop
 endfacet
 facet normal -6.201897e-01 -7.844288e-01  6.010352e-03
   outer loop
     vertex  1.901075e+00  5.949283e-01  4.513433e+00
     vertex  1.171573e+00  1.171573e+00  4.497954e+00
     vertex  1.506041e+00  8.726741e-01  5.000000e-04
   endloop
 endfacet
 facet normal -3.302742e-01 -9.438696e-01 -5.398219e-03
   outer loop
     vertex  2.741437e+00  2.031567e-01  4.558470e+00
     vertex  2.264465e+00  3.961245e-01  5.000000e-04
     vertex  3.109916e+00  1.002884e-01  5.000000e-04
   endloop
 endfacet
 facet normal -4.227849e-01 -9.062110e-01  5.876954e-03
   outer loop
     vertex  2.741437e+00  2.031567e-01  4.558470e+00
     vertex  1.901075e+00  5.949283e-01  4.513433e+00
     vertex  2.264465e+00  3.961245e-01  5.000000e-04
   endloop
 endfacet
 facet normal -1.119630e-01 -9.936988e-01 -5.198428e-03
   outer loop
     vertex  3.645000e+00  1.578427e-02  4.629216e+00
     vertex  3.109916e+00  1.002884e-01  5.000000e-04
     vertex  4.000000e+00  0.000000e+00  5.000000e-04
   endloop
 endfacet
 facet normal -2.034714e-01 -9.790646e-01  5.647198e-03
   outer loop
     vertex  3.645000e+00  1.578427e-02  4.629216e+00
     vertex  2.741437e+00  2.031567e-01  4.558470e+00
     vertex  3.109916e+00  1.002884e-01  5.000000e-04
   endloop
 endfacet
 facet normal -4.441884e-02 -9.990130e-01 -0.000000e+00
   outer loop
     vertex  4.000000e+00  0.000000e+00  4.645000e+00
     vertex  3.645000e+00  1.578427e-02  4.629216e+00
     vertex  4.000000e+00  0.000000e+00  5.000000e-04
   endloop
 endfacet
 facet normal  7.002145e-01 -1.392813e-01  7.002145e-01
   outer loop
     vertex  1.277228e+00  3.933576e+01  3.562858e+00
     vertex  1.578427e-02  3.835500e+01  4.629216e+00
     vertex  2.148500e+00  3.835500e+01  2.496500e+00
   endloop
 endfacet
 facet normal  6.806480e-01 -8.416573e-02  7.277599e-01
   outer loop
     vertex  1.277228e+00  3.933576e+01  3.562858e+00
     vertex  2.031567e-01  3.925856e+01  4.558470e+00
     vertex  1.578427e-02  3.835500e+01  4.629216e+00
   endloop
 endfacet
 facet normal  6.645450e-01 -2.725179e-01  6.957830e-01
   outer loop
     vertex  1.277228e+00  3.933576e+01  3.562858e+00
     vertex  5.949283e-01  4.009893e+01  4.513433e+00
     vertex  2.031567e-01  3.925856e+01  4.558470e+00
   endloop
 endfacet
 facet normal  7.331662e-01 -8.260799e-02  6.750135e-01
   outer loop
     vertex  1.277228e+00  3.933576e+01  3.562858e+00
     vertex  2.148500e+00  3.835500e+01  2.496500e+00
     vertex  2.186020e+00  3.868800e+01  2.496500e+00
   endloop
 endfacet
 facet normal  6.657455e-01 -2.329544e-01  7.088831e-01
   outer loop
     vertex  1.277228e+00  3.933576e+01  3.562858e+00
     vertex  2.186020e+00  3.868800e+01  2.496500e+00
     vertex  2.296700e+00  3.900431e+01  2.496500e+00
   endloop
 endfacet
 facet normal  6.062950e-01 -3.809604e-01  6.980513e-01
   outer loop
     vertex  1.277228e+00  3.933576e+01  3.562858e+00
     vertex  2.296700e+00  3.900431e+01  2.496500e+00
     vertex  2.474989e+00  3.928805e+01  2.496500e+00
   endloop
 endfacet
 facet normal  5.643746e-01 -4.311803e-01  7.039636e-01
   outer loop
     vertex  1.832786e+00  4.016721e+01  3.562858e+00
     vertex  1.171573e+00  4.082843e+01  4.497954e+00
     vertex  5.949283e-01  4.009893e+01  4.513433e+00
   endloop
 endfacet
 facet normal  4.311803e-01 -5.643746e-01  7.039637e-01
   outer loop
     vertex  1.832786e+00  4.016721e+01  3.562858e+00
     vertex  1.901075e+00  4.140507e+01  4.513433e+00
     vertex  1.171573e+00  4.082843e+01  4.497954e+00
   endloop
 endfacet
 facet normal  4.977989e-01 -4.977989e-01  7.102060e-01
   outer loop
     vertex  1.832786e+00  4.016721e+01  3.562858e+00
     vertex  2.474989e+00  3.928805e+01  2.496500e+00
     vertex  2.711947e+00  3.952501e+01  2.496500e+00
   endloop
 endfacet
 facet normal  5.754806e-01 -3.845239e-01  7.217780e-01
   outer loop
     vertex  1.832786e+00  4.016721e+01  3.562858e+00
     vertex  5.949283e-01  4.009893e+01  4.513433e+00
     vertex  1.277228e+00  3.933576e+01  3.562858e+00
   endloop
 endfacet
 facet normal  6.001756e-01 -4.010245e-01  6.920755e-01
   outer loop
     vertex  1.832786e+00  4.016721e+01  3.562858e+00
     vertex  1.277228e+00  3.933576e+01  3.562858e+00
     vertex  2.474989e+00  3.928805e+01  2.496500e+00
   endloop
 endfacet
 facet normal  2.725179e-01 -6.645450e-01  6.957830e-01
   outer loop
     vertex  2.664237e+00  4.072277e+01  3.562858e+00
     vertex  2.741437e+00  4.179684e+01  4.558470e+00
     vertex  1.901075e+00  4.140507e+01  4.513433e+00
   endloop
 endfacet
 facet normal  8.416572e-02 -6.806480e-01  7.277599e-01
   outer loop
     vertex  2.664237e+00  4.072277e+01  3.562858e+00
     vertex  3.645000e+00  4.198422e+01  4.629216e+00
     vertex  2.741437e+00  4.179684e+01  4.558470e+00
   endloop
 endfacet
 facet normal  1.392813e-01 -7.002145e-01  7.002145e-01
   outer loop
     vertex  2.664237e+00  4.072277e+01  3.562858e+00
     vertex  3.645000e+00  3.985150e+01  2.496500e+00
     vertex  3.645000e+00  4.198422e+01  4.629216e+00
   endloop
 endfacet
 facet normal  3.809604e-01 -6.062950e-01  6.980513e-01
   outer loop
     vertex  2.664237e+00  4.072277e+01  3.562858e+00
     vertex  2.711947e+00  3.952501e+01  2.496500e+00
     vertex  2.995693e+00  3.970330e+01  2.496500e+00
   endloop
 endfacet
 facet normal  2.329544e-01 -6.657455e-01  7.088831e-01
   outer loop
     vertex  2.664237e+00  4.072277e+01  3.562858e+00
     vertex  2.995693e+00  3.970330e+01  2.496500e+00
     vertex  3.311997e+00  3.981398e+01  2.496500e+00
   endloop
 endfacet
 facet normal  8.260799e-02 -7.331662e-01  6.750135e-01
   outer loop
     vertex  2.664237e+00  4.072277e+01  3.562858e+00
     vertex  3.311997e+00  3.981398e+01  2.496500e+00
     vertex  3.645000e+00  3.985150e+01  2.496500e+00
   endloop
 endfacet
 facet normal  3.845239e-01 -5.754806e-01  7.217780e-01
   outer loop
     vertex  2.664237e+00  4.072277e+01  3.562858e+00
     vertex  1.901075e+00  4.140507e+01  4.513433e+00
     vertex  1.832786e+00  4.016721e+01  3.562858e+00
   endloop
 endfacet
 facet normal  4.010245e-01 -6.001756e-01  6.920755e-01
   outer loop
     vertex  2.664237e+00  4.072277e+01  3.562858e+00
     vertex  1.832786e+00  4.016721e+01  3.562858e+00
     vertex  2.711947e+00  3.952501e+01  2.496500e+00
   endloop
 endfacet
 facet normal  1.000000e+00  0.000000e+00  0.000000e+00
   outer loop
     vertex  2.148500e+00  3.835500e+01  2.496500e+00
     vertex  2.148500e+00  3.645000e+00  2.496500e+00
     vertex  2.148500e+00  3.645000e+00  6.965002e-01
   endloop
 endfacet
 facet normal  1.000000e+00  0.000000e+00  0.000000e+00
   outer loop
     vertex  2.148500e+00  3.835500e+01  2.496500e+00
     vertex  2.148500e+00  3.645000e+00  6.965002e-01
     vertex  2.148500e+00  3.835500e+01  6.965002e-01
   endloop
 endfacet
 facet normal  1.392813e-01  7.002145e-01  7.002145e-01
   outer loop
     vertex  2.664237e+00  1.277228e+00  3.562858e+00
     vertex  3.645000e+00  1.578427e-02  4.629216e+00
     vertex  3.645000e+00  2.148500e+00  2.496500e+00
   endloop
 endfacet
 facet normal  2.725179e-01  6.645450e-01  6.957830e-01
   outer loop
     vertex  2.664237e+00  1.277228e+00  3.562858e+00
     vertex  1.901075e+00  5.949283e-01  4.513433e+00
     vertex  2.741437e+00  2.031567e-01  4.558470e+00
   endloop
 endfacet
 facet normal  8.416572e-02  6.806480e-01  7.277599e-01
   outer loop
     vertex  2.664237e+00  1.277228e+00  3.562858e+00
     vertex  2.741437e+00  2.031567e-01  4.558470e+00
     vertex  3.645000e+00  1.578427e-02  4.629216e+00
   endloop
 endfacet
 facet normal  8.260799e-02  7.331662e-01  6.750135e-01
   outer loop
     vertex  2.664237e+00  1.277228e+00  3.562858e+00
     vertex  3.645000e+00  2.148500e+00  2.496500e+00
     vertex  3.311997e+00  2.186020e+00  2.496500e+00
   endloop
 endfacet
 facet normal  2.329544e-01  6.657455e-01  7.088831e-01
   outer loop
     vertex  2.664237e+00  1.277228e+00  3.562858e+00
     vertex  3.311997e+00  2.186020e+00  2.496500e+00
     vertex  2.995693e+00  2.296700e+00  2.496500e+00
   endloop
 endfacet
 facet normal  3.809604e-01  6.062950e-01  6.980513e-01
   outer loop
     vertex  2.664237e+00  1.277228e+00  3.562858e+00
     vertex  2.995693e+00  2.296700e+00  2.496500e+00
     vertex  2.711947e+00  2.474989e+00  2.496500e+00
   endloop
 endfacet
 facet normal  5.643746e-01  4.311803e-01  7.039636e-01
   outer loop
     vertex  1.832786e+00  1.832786e+00  3.562858e+00
     vertex  5.949283e-01  1.901075e+00  4.513433e+00
     vertex  1.171573e+00  1.171573e+00  4.497954e+00
   endloop
 endfacet
 facet normal  4.311803e-01  5.643746e-01  7.039637e-01
   outer loop
     vertex  1.832786e+00  1.832786e+00  3.562858e+00
     vertex  1.171573e+00  1.171573e+00  4.497954e+00
     vertex  1.901075e+00  5.949283e-01  4.513433e+00
   endloop
 endfacet
 facet normal  4.977989e-01  4.977989e-01  7.102060e-01
   outer loop
     vertex  1.832786e+00  1.832786e+00  3.562858e+00
     vertex  2.711947e+00  2.474989e+00  2.496500e+00
     vertex  2.474989e+00  2.711947e+00  2.496500e+00
   endloop
 endfacet
 facet normal  3.845239e-01  5.754806e-01  7.217780e-01
   outer loop
     vertex  1.832786e+00  1.832786e+00  3.562858e+00
     vertex  1.901075e+00  5.949283e-01  4.513433e+00
     vertex  2.664237e+00  1.277228e+00  3.562858e+00
   endloop
 endfacet
 facet normal  4.010245e-01  6.001756e-01  6.920755e-01
   outer loop
     vertex  1.832786e+00  1.832786e+00  3.562858e+00
     vertex  2.664237e+00  1.277228e+00  3.562858e+00
     vertex  2.711947e+00  2.474989e+00  2.496500e+00
   endloop
 endfacet
 facet normal  6.806480e-01  8.416573e-02  7.277599e-01
   outer loop
     vertex  1.277228e+00  2.664237e+00  3.562858e+00
     vertex  1.578427e-02  3.645000e+00  4.629216e+00
     vertex  2.031567e-01  2.741437e+00  4.558470e+00
   endloop
 endfacet
 facet normal  6.645450e-01  2.725179e-01  6.957830e-01
   outer loop
     vertex  1.277228e+00  2.664237e+00  3.562858e+00
     vertex  2.031567e-01  2.741437e+00  4.558470e+00
     vertex  5.949283e-01  1.901075e+00  4.513433e+00
   endloop
 endfacet
 facet normal  7.002145e-01  1.392813e-01  7.002145e-01
   outer loop
     vertex  1.277228e+00  2.664237e+00  3.562858e+00
     vertex  2.148500e+00  3.645000e+00  2.496500e+00
     vertex  1.578427e-02  3.645000e+00  4.629216e+00
   endloop
 endfacet
 facet normal  6.062950e-01  3.809604e-01  6.980513e-01
   outer loop
     vertex  1.277228e+00  2.664237e+00  3.562858e+00
     vertex  2.474989e+00  2.711947e+00  2.496500e+00
     vertex  2.296700e+00  2.995693e+00  2.496500e+00
   endloop
 endfacet
 facet normal  6.657455e-01  2.329544e-01  7.088831e-01
   outer loop
     vertex  1.277228e+00  2.664237e+00  3.562858e+00
     vertex  2.296700e+00  2.995693e+00  2.496500e+00
     vertex  2.186020e+00  3.311997e+00  2.496500e+00
   endloop
 endfacet
 facet normal  7.331662e-01  8.260799e-02  6.750135e-01
   outer loop
     vertex  1.277228e+00  2.664237e+00  3.562858e+00
     vertex  2.186020e+00  3.311997e+00  2.496500e+00
     vertex  2.148500e+00  3.645000e+00  2.496500e+00
   endloop
 endfacet
 facet normal  6.001756e-01  4.010245e-01  6.920755e-01
   outer loop
     vertex  1.277228e+00  2.664237e+00  3.562858e+00
     vertex  1.832786e+00  1.832786e+00  3.562858e+00
     vertex  2.474989e+00  2.711947e+00  2.496500e+00
   endloop
 endfacet
 facet normal  5.754806e-01  3.845239e-01  7.217780e-01
   outer loop
     vertex  1.277228e+00  2.664237e+00  3.562858e+00
     vertex  5.949283e-01  1.901075e+00  4.513433e+00
     vertex  1.832786e+00  1.832786e+00  3.562858e+00
   endloop
 endfacet
 facet normal  0.000000e+00 -7.071068e-01  7.071068e-01
   outer loop
     vertex  3.645000e+00  3.985150e+01  2.496500e+00
     vertex  4.000000e+00  4.200000e+01  4.645000e+00
     vertex  3.645000e+00  4.198422e+01  4.629216e+00
   endloop
 endfacet
 facet normal  0.000000e+00 -7.071068e-01  7.071068e-01
   outer loop
     vertex  3.800000e+01  4.200000e+01  4.645000e+00
     vertex  4.000000e+00  4.200000e+01  4.645000e+00
     vertex  3.645000e+00  3.985150e+01  2.496500e+00
   endloop
 endfacet
 facet normal  0.000000e+00 -7.071068e-01  7.071068e-01
   outer loop
     vertex  3.835500e+01  3.985150e+01  2.496500e+00
     vertex  3.835500e+01  4.198422e+01  4.629216e+00
     vertex  3.800000e+01  4.200000e+01  4.645000e+00
   endloop
 endfacet
 facet normal  0.000000e+00 -7.071068e-01  7.071068e-01
   outer loop
     vertex  3.835500e+01  3.985150e+01  2.496500e+00
     vertex  3.800000e+01  4.200000e+01  4.645000e+00
     vertex  3.645000e+00  3.985150e+01  2.496500e+00
   endloop
 endfacet
 facet normal  0.000000e+00  1.000000e+00  0.000000e+00
   outer loop
     vertex  3.800000e+01  4.200000e+01  4.645000e+00
     vertex  3.800000e+01  4.200000e+01  5.000000e-04
     vertex  4.000000e+00  4.200000e+01  5.000000e-04
   endloop
 endfacet
 facet normal  0.000000e+00  1.000000e+00  0.000000e+00
   outer loop
     vertex  3.800000e+01  4.200000e+01  4.645000e+00
     vertex  4.000000e+00  4.200000e+01  5.000000e-04
     vertex  4.000000e+00  4.200000e+01  4.645000e+00
   endloop
 endfacet
 facet normal  0.000000e+00 -1.000000e+00 -0.000000e+00
   outer loop
     vertex  3.800000e+01  0.000000e+00  4.645000e+00
     vertex  4.000000e+00  0.000000e+00  5.000000e-04
     vertex  3.800000e+01  0.000000e+00  5.000000e-04
   endloop
 endfacet
 facet normal -0.000000e+00 -1.000000e+00  0.000000e+00
   outer loop
     vertex  3.800000e+01  0.000000e+00  4.645000e+00
     vertex  4.000000e+00  0.000000e+00  4.645000e+00
     vertex  4.000000e+00  0.000000e+00  5.000000e-04
   endloop
 endfacet
 facet normal  9.990130e-01 -4.441884e-02  0.000000e+00
   outer loop
     vertex  4.198422e+01  3.645000e+00  4.629216e+00
     vertex  4.200000e+01  4.000000e+00  5.000000e-04
     vertex  4.200000e+01  4.000000e+00  4.645000e+00
   endloop
 endfacet
 facet normal  9.936988e-01 -1.119630e-01 -5.198428e-03
   outer loop
     vertex  4.198422e+01  3.645000e+00  4.629216e+00
     vertex  4.189971e+01  3.109916e+00  5.000000e-04
     vertex  4.200000e+01  4.000000e+00  5.000000e-04
   endloop
 endfacet
 facet normal  9.438696e-01 -3.302742e-01 -5.398219e-03
   outer loop
     vertex  4.179684e+01  2.741437e+00  4.558470e+00
     vertex  4.160388e+01  2.264465e+00  5.000000e-04
     vertex  4.189971e+01  3.109916e+00  5.000000e-04
   endloop
 endfacet
 facet normal  9.790646e-01 -2.034714e-01  5.647199e-03
   outer loop
     vertex  4.179684e+01  2.741437e+00  4.558470e+00
     vertex  4.189971e+01  3.109916e+00  5.000000e-04
     vertex  4.198422e+01  3.645000e+00  4.629216e+00
   endloop
 endfacet
 facet normal  8.467112e-01 -5.320239e-01 -5.540264e-03
   outer loop
     vertex  4.140507e+01  1.901075e+00  4.513433e+00
     vertex  4.112733e+01  1.506041e+00  5.000000e-04
     vertex  4.160388e+01  2.264465e+00  5.000000e-04
   endloop
 endfacet
 facet normal  9.062110e-01 -4.227850e-01  5.876953e-03
   outer loop
     vertex  4.140507e+01  1.901075e+00  4.513433e+00
     vertex  4.160388e+01  2.264465e+00  5.000000e-04
     vertex  4.179684e+01  2.741437e+00  4.558470e+00
   endloop
 endfacet
 facet normal  7.070957e-01 -7.070957e-01 -5.592223e-03
   outer loop
     vertex  4.082843e+01  1.171573e+00  4.497954e+00
     vertex  4.049396e+01  8.726741e-01  5.000000e-04
     vertex  4.112733e+01  1.506041e+00  5.000000e-04
   endloop
 endfacet
 facet normal  7.844288e-01 -6.201897e-01  6.010353e-03
   outer loop
     vertex  4.082843e+01  1.171573e+00  4.497954e+00
     vertex  4.112733e+01  1.506041e+00  5.000000e-04
     vertex  4.140507e+01  1.901075e+00  4.513433e+00
   endloop
 endfacet
 facet normal  5.320239e-01 -8.467112e-01 -5.540264e-03
   outer loop
     vertex  4.009893e+01  5.949283e-01  4.513433e+00
     vertex  3.973553e+01  3.961245e-01  5.000000e-04
     vertex  4.049396e+01  8.726741e-01  5.000000e-04
   endloop
 endfacet
 facet normal  6.201897e-01 -7.844288e-01  6.010352e-03
   outer loop
     vertex  4.009893e+01  5.949283e-01  4.513433e+00
     vertex  4.049396e+01  8.726741e-01  5.000000e-04
     vertex  4.082843e+01  1.171573e+00  4.497954e+00
   endloop
 endfacet
 facet normal  3.302742e-01 -9.438696e-01 -5.398219e-03
   outer loop
     vertex  3.925856e+01  2.031567e-01  4.558470e+00
     vertex  3.889008e+01  1.002884e-01  5.000000e-04
     vertex  3.973553e+01  3.961245e-01  5.000000e-04
   endloop
 endfacet
 facet normal  4.227849e-01 -9.062110e-01  5.876954e-03
   outer loop
     vertex  3.925856e+01  2.031567e-01  4.558470e+00
     vertex  3.973553e+01  3.961245e-01  5.000000e-04
     vertex  4.009893e+01  5.949283e-01  4.513433e+00
   endloop
 endfacet
 facet normal  1.119630e-01 -9.936988e-01 -5.198428e-03
   outer loop
     vertex  3.835500e+01  1.578427e-02  4.629216e+00
     vertex  3.800000e+01  0.000000e+00  5.000000e-04
     vertex  3.889008e+01  1.002884e-01  5.000000e-04
   endloop
 endfacet
 facet normal  2.034714e-01 -9.790646e-01  5.647198e-03
   outer loop
     vertex  3.835500e+01  1.578427e-02  4.629216e+00
     vertex  3.889008e+01  1.002884e-01  5.000000e-04
     vertex  3.925856e+01  2.031567e-01  4.558470e+00
   endloop
 endfacet
 facet normal  4.441884e-02 -9.990130e-01  0.000000e+00
   outer loop
     vertex  3.800000e+01  0.000000e+00  4.645000e+00
     vertex  3.800000e+01  0.000000e+00  5.000000e-04
     vertex  3.835500e+01  1.578427e-02  4.629216e+00
   endloop
 endfacet
 facet normal  9.990130e-01  4.441884e-02  0.000000e+00
   outer loop
     vertex  4.198422e+01  3.835500e+01  4.629216e+00
     vertex  4.200000e+01  3.800000e+01  4.645000e+00
     vertex  4.200000e+01  3.800000e+01  5.000000e-04
   endloop
 endfacet
 facet normal  9.936988e-01  1.119630e-01 -5.198428e-03
   outer loop
     vertex  4.198422e+01  3.835500e+01  4.629216e+00
     vertex  4.200000e+01  3.800000e+01  5.000000e-04
     vertex  4.189971e+01  3.889008e+01  5.000000e-04
   endloop
 endfacet
 facet normal  9.438696e-01  3.302742e-01 -5.398219e-03
   outer loop
     vertex  4.179684e+01  3.925856e+01  4.558470e+00
     vertex  4.189971e+01  3.889008e+01  5.000000e-04
     vertex  4.160388e+01  3.973553e+01  5.000000e-04
   endloop
 endfacet
 facet normal  9.790646e-01  2.034714e-01  5.647199e-03
   outer loop
     vertex  4.179684e+01  3.925856e+01  4.558470e+00
     vertex  4.198422e+01  3.835500e+01  4.629216e+00
     vertex  4.189971e+01  3.889008e+01  5.000000e-04
   endloop
 endfacet
 facet normal  8.467112e-01  5.320239e-01 -5.540264e-03
   outer loop
     vertex  4.140507e+01  4.009893e+01  4.513433e+00
     vertex  4.160388e+01  3.973553e+01  5.000000e-04
     vertex  4.112733e+01  4.049396e+01  5.000000e-04
   endloop
 endfacet
 facet normal  9.062110e-01  4.227850e-01  5.876953e-03
   outer loop
     vertex  4.140507e+01  4.009893e+01  4.513433e+00
     vertex  4.179684e+01  3.925856e+01  4.558470e+00
     vertex  4.160388e+01  3.973553e+01  5.000000e-04
   endloop
 endfacet
 facet normal  7.070957e-01  7.070957e-01 -5.592223e-03
   outer loop
     vertex  4.082843e+01  4.082843e+01  4.497954e+00
     vertex  4.112733e+01  4.049396e+01  5.000000e-04
     vertex  4.049396e+01  4.112733e+01  5.000000e-04
   endloop
 endfacet
 facet normal  7.844288e-01  6.201897e-01  6.010353e-03
   outer loop
     vertex  4.082843e+01  4.082843e+01  4.497954e+00
     vertex  4.140507e+01  4.009893e+01  4.513433e+00
     vertex  4.112733e+01  4.049396e+01  5.000000e-04
   endloop
 endfacet
 facet normal  5.320239e-01  8.467112e-01 -5.540264e-03
   outer loop
     vertex  4.009893e+01  4.140507e+01  4.513433e+00
     vertex  4.049396e+01  4.112733e+01  5.000000e-04
     vertex  3.973553e+01  4.160388e+01  5.000000e-04
   endloop
 endfacet
 facet normal  6.201897e-01  7.844288e-01  6.010352e-03
   outer loop
     vertex  4.009893e+01  4.140507e+01  4.513433e+00
     vertex  4.082843e+01  4.082843e+01  4.497954e+00
     vertex  4.049396e+01  4.112733e+01  5.000000e-04
   endloop
 endfacet
 facet normal  3.302742e-01  9.438696e-01 -5.398219e-03
   outer loop
     vertex  3.925856e+01  4.179684e+01  4.558470e+00
     vertex  3.973553e+01  4.160388e+01  5.000000e-04
     vertex  3.889008e+01  4.189971e+01  5.000000e-04
   endloop
 endfacet
 facet normal  4.227849e-01  9.062110e-01  5.876954e-03
   outer loop
     vertex  3.925856e+01  4.179684e+01  4.558470e+00
     vertex  4.009893e+01  4.140507e+01  4.513433e+00
     vertex  3.973553e+01  4.160388e+01  5.000000e-04
   endloop
 endfacet
 facet normal  1.119630e-01  9.936988e-01 -5.198428e-03
   outer loop
     vertex  3.835500e+01  4.198422e+01  4.629216e+00
     vertex  3.889008e+01  4.189971e+01  5.000000e-04
     vertex  3.800000e+01  4.200000e+01  5.000000e-04
   endloop
 endfacet
 facet normal  2.034714e-01  9.790646e-01  5.647198e-03
   outer loop
     vertex  3.835500e+01  4.198422e+01  4.629216e+00
     vertex  3.925856e+01  4.179684e+01  4.558470e+00
     vertex  3.889008e+01  4.189971e+01  5.000000e-04
   endloop
 endfacet
 facet normal  4.441884e-02  9.990130e-01  0.000000e+00
   outer loop
     vertex  3.800000e+01  4.200000e+01  4.645000e+00
     vertex  3.835500e+01  4.198422e+01  4.629216e+00
     vertex  3.800000e+01  4.200000e+01  5.000000e-04
   endloop
 endfacet
 facet normal  1.000000e+00  0.000000e+00  0.000000e+00
   outer loop
     vertex  4.200000e+01  4.000000e+00  4.645000e+00
     vertex  4.200000e+01  4.000000e+00  5.000000e-04
     vertex  4.200000e+01  3.800000e+01  5.000000e-04
   endloop
 endfacet
 facet normal  1.000000e+00  0.000000e+00  0.000000e+00
   outer loop
     vertex  4.200000e+01  4.000000e+00  4.645000e+00
     vertex  4.200000e+01  3.800000e+01  5.000000e-04
     vertex  4.200000e+01  3.800000e+01  4.645000e+00
   endloop
 endfacet
 facet normal  1.392813e-01  7.002145e-01  7.002145e-01
   outer loop
     vertex  3.205488e+00  2.583924e+00  3.485001e-01
     vertex  3.645000e+00  2.148500e+00  6.965002e-01
     vertex  3.645000e+00  2.844500e+00  5.000000e-04
   endloop
 endfacet
 facet normal  7.524260e-02  6.677965e-01  7.405311e-01
   outer loop
     vertex  3.205488e+00  2.583924e+00  3.485001e-01
     vertex  3.311997e+00  2.186020e+00  6.965002e-01
     vertex  3.645000e+00  2.148500e+00  6.965002e-01
   endloop
 endfacet
 facet normal  2.361075e-01  6.747564e-01  6.992546e-01
   outer loop
     vertex  3.205488e+00  2.583924e+00  3.485001e-01
     vertex  2.995693e+00  2.296700e+00  6.965002e-01
     vertex  3.311997e+00  2.186020e+00  6.965002e-01
   endloop
 endfacet
 facet normal  3.725367e-01  5.928888e-01  7.139323e-01
   outer loop
     vertex  3.205488e+00  2.583924e+00  3.485001e-01
     vertex  2.711947e+00  2.474989e+00  6.965002e-01
     vertex  2.995693e+00  2.296700e+00  6.965002e-01
   endloop
 endfacet
 facet normal  8.382504e-02  7.439678e-01  6.629368e-01
   outer loop
     vertex  3.205488e+00  2.583924e+00  3.485001e-01
     vertex  3.645000e+00  2.844500e+00  5.000000e-04
     vertex  3.466872e+00  2.864570e+00  5.000000e-04
   endloop
 endfacet
 facet normal  2.324624e-01  6.643394e-01  7.103622e-01
   outer loop
     vertex  3.205488e+00  2.583924e+00  3.485001e-01
     vertex  3.466872e+00  2.864570e+00  5.000000e-04
     vertex  3.297676e+00  2.923774e+00  5.000000e-04
   endloop
 endfacet
 facet normal  3.823018e-01  6.084298e-01  6.954556e-01
   outer loop
     vertex  3.205488e+00  2.583924e+00  3.485001e-01
     vertex  3.297676e+00  2.923774e+00  5.000000e-04
     vertex  3.145896e+00  3.019144e+00  5.000000e-04
   endloop
 endfacet
 facet normal  5.068049e-01  5.068049e-01  6.973504e-01
   outer loop
     vertex  2.832888e+00  2.832888e+00  3.485001e-01
     vertex  2.474989e+00  2.711947e+00  6.965002e-01
     vertex  2.711947e+00  2.474989e+00  6.965002e-01
   endloop
 endfacet
 facet normal  4.963972e-01  4.963972e-01  7.121654e-01
   outer loop
     vertex  2.832888e+00  2.832888e+00  3.485001e-01
     vertex  3.145896e+00  3.019144e+00  5.000000e-04
     vertex  3.019144e+00  3.145896e+00  5.000000e-04
   endloop
 endfacet
 facet normal  3.834970e-01  5.739438e-01  7.235459e-01
   outer loop
     vertex  2.832888e+00  2.832888e+00  3.485001e-01
     vertex  2.711947e+00  2.474989e+00  6.965002e-01
     vertex  3.205488e+00  2.583924e+00  3.485001e-01
   endloop
 endfacet
 facet normal  4.038502e-01  6.044045e-01  6.867315e-01
   outer loop
     vertex  2.832888e+00  2.832888e+00  3.485001e-01
     vertex  3.205488e+00  2.583924e+00  3.485001e-01
     vertex  3.145896e+00  3.019144e+00  5.000000e-04
   endloop
 endfacet
 facet normal  5.928888e-01  3.725367e-01  7.139323e-01
   outer loop
     vertex  2.583924e+00  3.205488e+00  3.485001e-01
     vertex  2.296700e+00  2.995693e+00  6.965002e-01
     vertex  2.474989e+00  2.711947e+00  6.965002e-01
   endloop
 endfacet
 facet normal  6.747564e-01  2.361075e-01  6.992546e-01
   outer loop
     vertex  2.583924e+00  3.205488e+00  3.485001e-01
     vertex  2.186020e+00  3.311997e+00  6.965002e-01
     vertex  2.296700e+00  2.995693e+00  6.965002e-01
   endloop
 endfacet
 facet normal  6.677965e-01  7.524260e-02  7.405311e-01
   outer loop
     vertex  2.583924e+00  3.205488e+00  3.485001e-01
     vertex  2.148500e+00  3.645000e+00  6.965002e-01
     vertex  2.186020e+00  3.311997e+00  6.965002e-01
   endloop
 endfacet
 facet normal  7.002145e-01  1.392813e-01  7.002145e-01
   outer loop
     vertex  2.583924e+00  3.205488e+00  3.485001e-01
     vertex  2.844500e+00  3.645000e+00  5.000000e-04
     vertex  2.148500e+00  3.645000e+00  6.965002e-01
   endloop
 endfacet
 facet normal  6.084298e-01  3.823018e-01  6.954556e-01
   outer loop
     vertex  2.583924e+00  3.205488e+00  3.485001e-01
     vertex  3.019144e+00  3.145896e+00  5.000000e-04
     vertex  2.923774e+00  3.297676e+00  5.000000e-04
   endloop
 endfacet
 facet normal  6.643394e-01  2.324624e-01  7.103622e-01
   outer loop
     vertex  2.583924e+00  3.205488e+00  3.485001e-01
     vertex  2.923774e+00  3.297676e+00  5.000000e-04
     vertex  2.864570e+00  3.466872e+00  5.000000e-04
   endloop
 endfacet
 facet normal  7.439678e-01  8.382504e-02  6.629368e-01
   outer loop
     vertex  2.583924e+00  3.205488e+00  3.485001e-01
     vertex  2.864570e+00  3.466872e+00  5.000000e-04
     vertex  2.844500e+00  3.645000e+00  5.000000e-04
   endloop
 endfacet
 facet normal  6.044045e-01  4.038502e-01  6.867315e-01
   outer loop
     vertex  2.583924e+00  3.205488e+00  3.485001e-01
     vertex  2.832888e+00  2.832888e+00  3.485001e-01
     vertex  3.019144e+00  3.145896e+00  5.000000e-04
   endloop
 endfacet
 facet normal  5.739438e-01  3.834970e-01  7.235459e-01
   outer loop
     vertex  2.583924e+00  3.205488e+00  3.485001e-01
     vertex  2.474989e+00  2.711947e+00  6.965002e-01
     vertex  2.832888e+00  2.832888e+00  3.485001e-01
   endloop
 endfacet
 facet normal  0.000000e+00  7.071068e-01  7.071068e-01
   outer loop
     vertex  3.645000e+00  2.844500e+00  5.000000e-04
     vertex  3.645000e+00  2.148500e+00  6.965002e-01
     vertex  3.835500e+01  2.148500e+00  6.965002e-01
   endloop
 endfacet
 facet normal -0.000000e+00  7.071068e-01  7.071068e-01
   outer loop
     vertex  3.645000e+00  2.844500e+00  5.000000e-04
     vertex  3.835500e+01  2.148500e+00  6.965002e-01
     vertex  3.835500e+01  2.844500e+00  5.000000e-04
   endloop
 endfacet
 facet normal -7.002145e-01  1.392813e-01  7.002145e-01
   outer loop
     vertex  3.941608e+01  3.205488e+00  3.485001e-01
     vertex  3.985150e+01  3.645000e+00  6.965002e-01
     vertex  3.915550e+01  3.645000e+00  5.000000e-04
   endloop
 endfacet
 facet normal -6.677965e-01  7.524260e-02  7.405311e-01
   outer loop
     vertex  3.941608e+01  3.205488e+00  3.485001e-01
     vertex  3.981398e+01  3.311997e+00  6.965002e-01
     vertex  3.985150e+01  3.645000e+00  6.965002e-01
   endloop
 endfacet
 facet normal -6.747564e-01  2.361075e-01  6.992546e-01
   outer loop
     vertex  3.941608e+01  3.205488e+00  3.485001e-01
     vertex  3.970330e+01  2.995693e+00  6.965002e-01
     vertex  3.981398e+01  3.311997e+00  6.965002e-01
   endloop
 endfacet
 facet normal -5.928888e-01  3.725367e-01  7.139323e-01
   outer loop
     vertex  3.941608e+01  3.205488e+00  3.485001e-01
     vertex  3.952501e+01  2.711947e+00  6.965002e-01
     vertex  3.970330e+01  2.995693e+00  6.965002e-01
   endloop
 endfacet
 facet normal -7.439678e-01  8.382504e-02  6.629368e-01
   outer loop
     vertex  3.941608e+01  3.205488e+00  3.485001e-01
     vertex  3.915550e+01  3.645000e+00  5.000000e-04
     vertex  3.913543e+01  3.466872e+00  5.000000e-04
   endloop
 endfacet
 facet normal -6.643394e-01  2.324624e-01  7.103622e-01
   outer loop
     vertex  3.941608e+01  3.205488e+00  3.485001e-01
     vertex  3.913543e+01  3.466872e+00  5.000000e-04
     vertex  3.907623e+01  3.297676e+00  5.000000e-04
   endloop
 endfacet
 facet normal -6.084298e-01  3.823018e-01  6.954556e-01
   outer loop
     vertex  3.941608e+01  3.205488e+00  3.485001e-01
     vertex  3.907623e+01  3.297676e+00  5.000000e-04
     vertex  3.898086e+01  3.145896e+00  5.000000e-04
   endloop
 endfacet
 facet normal -5.068049e-01  5.068049e-01  6.973504e-01
   outer loop
     vertex  3.916711e+01  2.832888e+00  3.485001e-01
     vertex  3.928805e+01  2.474989e+00  6.965002e-01
     vertex  3.952501e+01  2.711947e+00  6.965002e-01
   endloop
 endfacet
 facet normal -4.963972e-01  4.963972e-01  7.121654e-01
   outer loop
     vertex  3.916711e+01  2.832888e+00  3.485001e-01
     vertex  3.898086e+01  3.145896e+00  5.000000e-04
     vertex  3.885410e+01  3.019144e+00  5.000000e-04
   endloop
 endfacet
 facet normal -5.739438e-01  3.834970e-01  7.235459e-01
   outer loop
     vertex  3.916711e+01  2.832888e+00  3.485001e-01
     vertex  3.952501e+01  2.711947e+00  6.965002e-01
     vertex  3.941608e+01  3.205488e+00  3.485001e-01
   endloop
 endfacet
 facet normal -6.044045e-01  4.038502e-01  6.867315e-01
   outer loop
     vertex  3.916711e+01  2.832888e+00  3.485001e-01
     vertex  3.941608e+01  3.205488e+00  3.485001e-01
     vertex  3.898086e+01  3.145896e+00  5.000000e-04
   endloop
 endfacet
 facet normal -3.725367e-01  5.928888e-01  7.139323e-01
   outer loop
     vertex  3.879451e+01  2.583924e+00  3.485001e-01
     vertex  3.900431e+01  2.296700e+00  6.965002e-01
     vertex  3.928805e+01  2.474989e+00  6.965002e-01
   endloop
 endfacet
 facet normal -2.361075e-01  6.747564e-01  6.992546e-01
   outer loop
     vertex  3.879451e+01  2.583924e+00  3.485001e-01
     vertex  3.868800e+01  2.186020e+00  6.965002e-01
     vertex  3.900431e+01  2.296700e+00  6.965002e-01
   endloop
 endfacet
 facet normal -7.524260e-02  6.677965e-01  7.405311e-01
   outer loop
     vertex  3.879451e+01  2.583924e+00  3.485001e-01
     vertex  3.835500e+01  2.148500e+00  6.965002e-01
     vertex  3.868800e+01  2.186020e+00  6.965002e-01
   endloop
 endfacet
 facet normal -1.392813e-01  7.002145e-01  7.002145e-01
   outer loop
     vertex  3.879451e+01  2.583924e+00  3.485001e-01
     vertex  3.835500e+01  2.844500e+00  5.000000e-04
     vertex  3.835500e+01  2.148500e+00  6.965002e-01
   endloop
 endfacet
 facet normal -3.823018e-01  6.084298e-01  6.954556e-01
   outer loop
     vertex  3.879451e+01  2.583924e+00  3.485001e-01
     vertex  3.885410e+01  3.019144e+00  5.000000e-04
     vertex  3.870232e+01  2.923774e+00  5.000000e-04
   endloop
 endfacet
 facet normal -2.324624e-01  6.643394e-01  7.103622e-01
   outer loop
     vertex  3.879451e+01  2.583924e+00  3.485001e-01
     vertex  3.870232e+01  2.923774e+00  5.000000e-04
     vertex  3.853313e+01  2.864570e+00  5.000000e-04
   endloop
 endfacet
 facet normal -8.382504e-02  7.439678e-01  6.629368e-01
   outer loop
     vertex  3.879451e+01  2.583924e+00  3.485001e-01
     vertex  3.853313e+01  2.864570e+00  5.000000e-04
     vertex  3.835500e+01  2.844500e+00  5.000000e-04
   endloop
 endfacet
 facet normal -4.038502e-01  6.044045e-01  6.867315e-01
   outer loop
     vertex  3.879451e+01  2.583924e+00  3.485001e-01
     vertex  3.916711e+01  2.832888e+00  3.485001e-01
     vertex  3.885410e+01  3.019144e+00  5.000000e-04
   endloop
 endfacet
 facet normal -3.834970e-01  5.739438e-01  7.235459e-01
   outer loop
     vertex  3.879451e+01  2.583924e+00  3.485001e-01
     vertex  3.928805e+01  2.474989e+00  6.965002e-01
     vertex  3.916711e+01  2.832888e+00  3.485001e-01
   endloop
 endfacet
 facet normal -7.071068e-01  7.237534e-17  7.071068e-01
   outer loop
     vertex  3.985150e+01  3.645000e+00  6.965002e-01
     vertex  3.985150e+01  3.835500e+01  6.965002e-01
     vertex  3.915550e+01  3.835500e+01  5.000000e-04
   endloop
 endfacet
 facet normal -7.071068e-01  0.000000e+00  7.071068e-01
   outer loop
     vertex  3.915550e+01  3.645000e+00  5.000000e-04
     vertex  3.985150e+01  3.645000e+00  6.965002e-01
     vertex  3.915550e+01  3.835500e+01  5.000000e-04
   endloop
 endfacet
 facet normal -1.392813e-01 -7.002145e-01  7.002145e-01
   outer loop
     vertex  3.879451e+01  3.941608e+01  3.485001e-01
     vertex  3.835500e+01  3.985150e+01  6.965002e-01
     vertex  3.835500e+01  3.915550e+01  5.000000e-04
   endloop
 endfacet
 facet normal -7.524260e-02 -6.677965e-01  7.405311e-01
   outer loop
     vertex  3.879451e+01  3.941608e+01  3.485001e-01
     vertex  3.868800e+01  3.981398e+01  6.965002e-01
     vertex  3.835500e+01  3.985150e+01  6.965002e-01
   endloop
 endfacet
 facet normal -2.361075e-01 -6.747564e-01  6.992546e-01
   outer loop
     vertex  3.879451e+01  3.941608e+01  3.485001e-01
     vertex  3.900431e+01  3.970330e+01  6.965002e-01
     vertex  3.868800e+01  3.981398e+01  6.965002e-01
   endloop
 endfacet
 facet normal -3.725367e-01 -5.928888e-01  7.139323e-01
   outer loop
     vertex  3.879451e+01  3.941608e+01  3.485001e-01
     vertex  3.928805e+01  3.952501e+01  6.965002e-01
     vertex  3.900431e+01  3.970330e+01  6.965002e-01
   endloop
 endfacet
 facet normal -8.382504e-02 -7.439678e-01  6.629368e-01
   outer loop
     vertex  3.879451e+01  3.941608e+01  3.485001e-01
     vertex  3.835500e+01  3.915550e+01  5.000000e-04
     vertex  3.853313e+01  3.913543e+01  5.000000e-04
   endloop
 endfacet
 facet normal -2.324624e-01 -6.643394e-01  7.103622e-01
   outer loop
     vertex  3.879451e+01  3.941608e+01  3.485001e-01
     vertex  3.853313e+01  3.913543e+01  5.000000e-04
     vertex  3.870232e+01  3.907623e+01  5.000000e-04
   endloop
 endfacet
 facet normal -3.823018e-01 -6.084298e-01  6.954556e-01
   outer loop
     vertex  3.879451e+01  3.941608e+01  3.485001e-01
     vertex  3.870232e+01  3.907623e+01  5.000000e-04
     vertex  3.885410e+01  3.898086e+01  5.000000e-04
   endloop
 endfacet
 facet normal -5.068049e-01 -5.068049e-01  6.973504e-01
   outer loop
     vertex  3.916711e+01  3.916711e+01  3.485001e-01
     vertex  3.952501e+01  3.928805e+01  6.965002e-01
     vertex  3.928805e+01  3.952501e+01  6.965002e-01
   endloop
 endfacet
 facet normal -4.963972e-01 -4.963972e-01  7.121654e-01
   outer loop
     vertex  3.916711e+01  3.916711e+01  3.485001e-01
     vertex  3.885410e+01  3.898086e+01  5.000000e-04
     vertex  3.898086e+01  3.885410e+01  5.000000e-04
   endloop
 endfacet
 facet normal -3.834970e-01 -5.739438e-01  7.235459e-01
   outer loop
     vertex  3.916711e+01  3.916711e+01  3.485001e-01
     vertex  3.928805e+01  3.952501e+01  6.965002e-01
     vertex  3.879451e+01  3.941608e+01  3.485001e-01
   endloop
 endfacet
 facet normal -4.038502e-01 -6.044045e-01  6.867315e-01
   outer loop
     vertex  3.916711e+01  3.916711e+01  3.485001e-01
     vertex  3.879451e+01  3.941608e+01  3.485001e-01
     vertex  3.885410e+01  3.898086e+01  5.000000e-04
   endloop
 endfacet
 facet normal -5.928888e-01 -3.725367e-01  7.139323e-01
   outer loop
     vertex  3.941608e+01  3.879451e+01  3.485001e-01
     vertex  3.970330e+01  3.900431e+01  6.965002e-01
     vertex  3.952501e+01  3.928805e+01  6.965002e-01
   endloop
 endfacet
 facet normal -6.747564e-01 -2.361075e-01  6.992546e-01
   outer loop
     vertex  3.941608e+01  3.879451e+01  3.485001e-01
     vertex  3.981398e+01  3.868800e+01  6.965002e-01
     vertex  3.970330e+01  3.900431e+01  6.965002e-01
   endloop
 endfacet
 facet normal -6.677965e-01 -7.524260e-02  7.405311e-01
   outer loop
     vertex  3.941608e+01  3.879451e+01  3.485001e-01
     vertex  3.985150e+01  3.835500e+01  6.965002e-01
     vertex  3.981398e+01  3.868800e+01  6.965002e-01
   endloop
 endfacet
 facet normal -7.002145e-01 -1.392813e-01  7.002145e-01
   outer loop
     vertex  3.941608e+01  3.879451e+01  3.485001e-01
     vertex  3.915550e+01  3.835500e+01  5.000000e-04
     vertex  3.985150e+01  3.835500e+01  6.965002e-01
   endloop
 endfacet
 facet normal -6.084298e-01 -3.823018e-01  6.954556e-01
   outer loop
     vertex  3.941608e+01  3.879451e+01  3.485001e-01
     vertex  3.898086e+01  3.885410e+01  5.000000e-04
     vertex  3.907623e+01  3.870232e+01  5.000000e-04
   endloop
 endfacet
 facet normal -6.643394e-01 -2.324624e-01  7.103622e-01
   outer loop
     vertex  3.941608e+01  3.879451e+01  3.485001e-01
     vertex  3.907623e+01  3.870232e+01  5.000000e-04
     vertex  3.913543e+01  3.853313e+01  5.000000e-04
   endloop
 endfacet
 facet normal -7.439678e-01 -8.382504e-02  6.629368e-01
   outer loop
     vertex  3.941608e+01  3.879451e+01  3.485001e-01
     vertex  3.913543e+01  3.853313e+01  5.000000e-04
     vertex  3.915550e+01  3.835500e+01  5.000000e-04
   endloop
 endfacet
 facet normal -6.044045e-01 -4.038502e-01  6.867315e-01
   outer loop
     vertex  3.941608e+01  3.879451e+01  3.485001e-01
     vertex  3.916711e+01  3.916711e+01  3.485001e-01
     vertex  3.898086e+01  3.885410e+01  5.000000e-04
   endloop
 endfacet
 facet normal -5.739438e-01 -3.834970e-01  7.235459e-01
   outer loop
     vertex  3.941608e+01  3.879451e+01  3.485001e-01
     vertex  3.952501e+01  3.928805e+01  6.965002e-01
     vertex  3.916711e+01  3.916711e+01  3.485001e-01
   endloop
 endfacet
 facet normal  0.000000e+00 -7.071068e-01  7.071068e-01
   outer loop
     vertex  3.835500e+01  3.915550e+01  5.000000e-04
     vertex  3.835500e+01  3.985150e+01  6.965002e-01
     vertex  3.645000e+00  3.985150e+01  6.965002e-01
   endloop
 endfacet
 facet normal  0.000000e+00 -7.071068e-01  7.071068e-01
   outer loop
     vertex  3.835500e+01  3.915550e+01  5.000000e-04
     vertex  3.645000e+00  3.985150e+01  6.965002e-01
     vertex  3.645000e+00  3.915550e+01  5.000000e-04
   endloop
 endfacet
 facet normal  7.002145e-01 -1.392813e-01  7.002145e-01
   outer loop
     vertex  2.583924e+00  3.879451e+01  3.485001e-01
     vertex  2.148500e+00  3.835500e+01  6.965002e-01
     vertex  2.844500e+00  3.835500e+01  5.000000e-04
   endloop
 endfacet
 facet normal  6.677965e-01 -7.524260e-02  7.405311e-01
   outer loop
     vertex  2.583924e+00  3.879451e+01  3.485001e-01
     vertex  2.186020e+00  3.868800e+01  6.965002e-01
     vertex  2.148500e+00  3.835500e+01  6.965002e-01
   endloop
 endfacet
 facet normal  6.747564e-01 -2.361075e-01  6.992546e-01
   outer loop
     vertex  2.583924e+00  3.879451e+01  3.485001e-01
     vertex  2.296700e+00  3.900431e+01  6.965002e-01
     vertex  2.186020e+00  3.868800e+01  6.965002e-01
   endloop
 endfacet
 facet normal  5.928888e-01 -3.725367e-01  7.139323e-01
   outer loop
     vertex  2.583924e+00  3.879451e+01  3.485001e-01
     vertex  2.474989e+00  3.928805e+01  6.965002e-01
     vertex  2.296700e+00  3.900431e+01  6.965002e-01
   endloop
 endfacet
 facet normal  7.439678e-01 -8.382504e-02  6.629368e-01
   outer loop
     vertex  2.583924e+00  3.879451e+01  3.485001e-01
     vertex  2.844500e+00  3.835500e+01  5.000000e-04
     vertex  2.864570e+00  3.853313e+01  5.000000e-04
   endloop
 endfacet
 facet normal  6.643394e-01 -2.324624e-01  7.103622e-01
   outer loop
     vertex  2.583924e+00  3.879451e+01  3.485001e-01
     vertex  2.864570e+00  3.853313e+01  5.000000e-04
     vertex  2.923774e+00  3.870232e+01  5.000000e-04
   endloop
 endfacet
 facet normal  6.084298e-01 -3.823018e-01  6.954556e-01
   outer loop
     vertex  2.583924e+00  3.879451e+01  3.485001e-01
     vertex  2.923774e+00  3.870232e+01  5.000000e-04
     vertex  3.019144e+00  3.885410e+01  5.000000e-04
   endloop
 endfacet
 facet normal  5.068049e-01 -5.068049e-01  6.973504e-01
   outer loop
     vertex  2.832888e+00  3.916711e+01  3.485001e-01
     vertex  2.711947e+00  3.952501e+01  6.965002e-01
     vertex  2.474989e+00  3.928805e+01  6.965002e-01
   endloop
 endfacet
 facet normal  4.963972e-01 -4.963972e-01  7.121654e-01
   outer loop
     vertex  2.832888e+00  3.916711e+01  3.485001e-01
     vertex  3.019144e+00  3.885410e+01  5.000000e-04
     vertex  3.145896e+00  3.898086e+01  5.000000e-04
   endloop
 endfacet
 facet normal  5.739438e-01 -3.834970e-01  7.235459e-01
   outer loop
     vertex  2.832888e+00  3.916711e+01  3.485001e-01
     vertex  2.474989e+00  3.928805e+01  6.965002e-01
     vertex  2.583924e+00  3.879451e+01  3.485001e-01
   endloop
 endfacet
 facet normal  6.044045e-01 -4.038502e-01  6.867315e-01
   outer loop
     vertex  2.832888e+00  3.916711e+01  3.485001e-01
     vertex  2.583924e+00  3.879451e+01  3.485001e-01
     vertex  3.019144e+00  3.885410e+01  5.000000e-04
   endloop
 endfacet
 facet normal  3.725367e-01 -5.928888e-01  7.139323e-01
   outer loop
     vertex  3.205488e+00  3.941608e+01  3.485001e-01
     vertex  2.995693e+00  3.970330e+01  6.965002e-01
     vertex  2.711947e+00  3.952501e+01  6.965002e-01
   endloop
 endfacet
 facet normal  2.361075e-01 -6.747564e-01  6.992546e-01
   outer loop
     vertex  3.205488e+00  3.941608e+01  3.485001e-01
     vertex  3.311997e+00  3.981398e+01  6.965002e-01
     vertex  2.995693e+00  3.970330e+01  6.965002e-01
   endloop
 endfacet
 facet normal  7.524260e-02 -6.677965e-01  7.405311e-01
   outer loop
     vertex  3.205488e+00  3.941608e+01  3.485001e-01
     vertex  3.645000e+00  3.985150e+01  6.965002e-01
     vertex  3.311997e+00  3.981398e+01  6.965002e-01
   endloop
 endfacet
 facet normal  1.392813e-01 -7.002145e-01  7.002145e-01
   outer loop
     vertex  3.205488e+00  3.941608e+01  3.485001e-01
     vertex  3.645000e+00  3.915550e+01  5.000000e-04
     vertex  3.645000e+00  3.985150e+01  6.965002e-01
   endloop
 endfacet
 facet normal  3.823018e-01 -6.084298e-01  6.954556e-01
   outer loop
     vertex  3.205488e+00  3.941608e+01  3.485001e-01
     vertex  3.145896e+00  3.898086e+01  5.000000e-04
     vertex  3.297676e+00  3.907623e+01  5.000000e-04
   endloop
 endfacet
 facet normal  2.324624e-01 -6.643394e-01  7.103622e-01
   outer loop
     vertex  3.205488e+00  3.941608e+01  3.485001e-01
     vertex  3.297676e+00  3.907623e+01  5.000000e-04
     vertex  3.466872e+00  3.913543e+01  5.000000e-04
   endloop
 endfacet
 facet normal  8.382504e-02 -7.439678e-01  6.629368e-01
   outer loop
     vertex  3.205488e+00  3.941608e+01  3.485001e-01
     vertex  3.466872e+00  3.913543e+01  5.000000e-04
     vertex  3.645000e+00  3.915550e+01  5.000000e-04
   endloop
 endfacet
 facet normal  4.038502e-01 -6.044045e-01  6.867315e-01
   outer loop
     vertex  3.205488e+00  3.941608e+01  3.485001e-01
     vertex  2.832888e+00  3.916711e+01  3.485001e-01
     vertex  3.145896e+00  3.898086e+01  5.000000e-04
   endloop
 endfacet
 facet normal  3.834970e-01 -5.739438e-01  7.235459e-01
   outer loop
     vertex  3.205488e+00  3.941608e+01  3.485001e-01
     vertex  2.711947e+00  3.952501e+01  6.965002e-01
     vertex  2.832888e+00  3.916711e+01  3.485001e-01
   endloop
 endfacet
 facet normal  7.071068e-01  7.311623e-17  7.071068e-01
   outer loop
     vertex  2.844500e+00  3.835500e+01  5.000000e-04
     vertex  2.148500e+00  3.835500e+01  6.965002e-01
     vertex  2.148500e+00  3.645000e+00  6.965002e-01
   endloop
 endfacet
 facet normal  7.071068e-01  7.237534e-17  7.071068e-01
   outer loop
     vertex  2.844500e+00  3.835500e+01  5.000000e-04
     vertex  2.148500e+00  3.645000e+00  6.965002e-01
     vertex  2.844500e+00  3.645000e+00  5.000000e-04
   endloop
 endfacet
 facet normal -8.295144e-16  7.071068e-01  7.071068e-01
   outer loop
     vertex  3.835500e+01  2.148500e+00  2.496500e+00
     vertex  3.800000e+01  0.000000e+00  4.645000e+00
     vertex  3.835500e+01  1.578427e-02  4.629216e+00
   endloop
 endfacet
 facet normal  1.659029e-15  7.071068e-01  7.071068e-01
   outer loop
     vertex  3.645000e+00  2.148500e+00  2.496500e+00
     vertex  3.645000e+00  1.578427e-02  4.629216e+00
     vertex  4.000000e+00  0.000000e+00  4.645000e+00
   endloop
 endfacet
 facet normal  0.000000e+00  7.071068e-01  7.071068e-01
   outer loop
     vertex  3.645000e+00  2.148500e+00  2.496500e+00
     vertex  4.000000e+00  0.000000e+00  4.645000e+00
     vertex  3.800000e+01  0.000000e+00  4.645000e+00
   endloop
 endfacet
 facet normal -0.000000e+00  7.071068e-01  7.071068e-01
   outer loop
     vertex  3.645000e+00  2.148500e+00  2.496500e+00
     vertex  3.800000e+01  0.000000e+00  4.645000e+00
     vertex  3.835500e+01  2.148500e+00  2.496500e+00
   endloop
 endfacet
 facet normal  9.937122e-01 -1.119645e-01  0.000000e+00
   outer loop
     vertex  2.186020e+00  3.868800e+01  2.496500e+00
     vertex  2.148500e+00  3.835500e+01  2.496500e+00
     vertex  2.148500e+00  3.835500e+01  6.965002e-01
   endloop
 endfacet
 facet normal  9.937122e-01 -1.119645e-01  0.000000e+00
   outer loop
     vertex  2.186020e+00  3.868800e+01  2.496500e+00
     vertex  2.148500e+00  3.835500e+01  6.965002e-01
     vertex  2.186020e+00  3.868800e+01  6.965002e-01
   endloop
 endfacet
 facet normal  9.438833e-01 -3.302791e-01  0.000000e+00
   outer loop
     vertex  2.296700e+00  3.900431e+01  2.496500e+00
     vertex  2.186020e+00  3.868800e+01  6.965002e-01
     vertex  2.296700e+00  3.900431e+01  6.965002e-01
   endloop
 endfacet
 facet normal  9.438833e-01 -3.302791e-01  0.000000e+00
   outer loop
     vertex  2.296700e+00  3.900431e+01  2.496500e+00
     vertex  2.186020e+00  3.868800e+01  2.496500e+00
     vertex  2.186020e+00  3.868800e+01  6.965002e-01
   endloop
 endfacet
 facet normal  8.467242e-01 -5.320321e-01  0.000000e+00
   outer loop
     vertex  2.474989e+00  3.928805e+01  2.496500e+00
     vertex  2.296700e+00  3.900431e+01  6.965002e-01
     vertex  2.474989e+00  3.928805e+01  6.965002e-01
   endloop
 endfacet
 facet normal  8.467242e-01 -5.320321e-01  0.000000e+00
   outer loop
     vertex  2.474989e+00  3.928805e+01  2.496500e+00
     vertex  2.296700e+00  3.900431e+01  2.496500e+00
     vertex  2.296700e+00  3.900431e+01  6.965002e-01
   endloop
 endfacet
 facet normal  7.071068e-01 -7.071068e-01  0.000000e+00
   outer loop
     vertex  2.711947e+00  3.952501e+01  2.496500e+00
     vertex  2.474989e+00  3.928805e+01  6.965002e-01
     vertex  2.711947e+00  3.952501e+01  6.965002e-01
   endloop
 endfacet
 facet normal  5.320321e-01 -8.467242e-01  0.000000e+00
   outer loop
     vertex  2.711947e+00  3.952501e+01  2.496500e+00
     vertex  2.711947e+00  3.952501e+01  6.965002e-01
     vertex  2.995693e+00  3.970330e+01  6.965002e-01
   endloop
 endfacet
 facet normal  7.071068e-01 -7.071068e-01  0.000000e+00
   outer loop
     vertex  2.711947e+00  3.952501e+01  2.496500e+00
     vertex  2.474989e+00  3.928805e+01  2.496500e+00
     vertex  2.474989e+00  3.928805e+01  6.965002e-01
   endloop
 endfacet
 facet normal  5.320321e-01 -8.467242e-01  0.000000e+00
   outer loop
     vertex  2.995693e+00  3.970330e+01  2.496500e+00
     vertex  2.711947e+00  3.952501e+01  2.496500e+00
     vertex  2.995693e+00  3.970330e+01  6.965002e-01
   endloop
 endfacet
 facet normal  3.302791e-01 -9.438833e-01  0.000000e+00
   outer loop
     vertex  3.311997e+00  3.981398e+01  2.496500e+00
     vertex  2.995693e+00  3.970330e+01  6.965002e-01
     vertex  3.311997e+00  3.981398e+01  6.965002e-01
   endloop
 endfacet
 facet normal  3.302791e-01 -9.438833e-01  0.000000e+00
   outer loop
     vertex  3.311997e+00  3.981398e+01  2.496500e+00
     vertex  2.995693e+00  3.970330e+01  2.496500e+00
     vertex  2.995693e+00  3.970330e+01  6.965002e-01
   endloop
 endfacet
 facet normal  1.119645e-01 -9.937122e-01  0.000000e+00
   outer loop
     vertex  3.645000e+00  3.985150e+01  2.496500e+00
     vertex  3.311997e+00  3.981398e+01  6.965002e-01
     vertex  3.645000e+00  3.985150e+01  6.965002e-01
   endloop
 endfacet
 facet normal  1.119645e-01 -9.937122e-01  0.000000e+00
   outer loop
     vertex  3.645000e+00  3.985150e+01  2.496500e+00
     vertex  3.311997e+00  3.981398e+01  2.496500e+00
     vertex  3.311997e+00  3.981398e+01  6.965002e-01
   endloop
 endfacet
 facet normal  1.119645e-01  9.937122e-01  0.000000e+00
   outer loop
     vertex  3.311997e+00  2.186020e+00  2.496500e+00
     vertex  3.645000e+00  2.148500e+00  2.496500e+00
     vertex  3.645000e+00  2.148500e+00  6.965002e-01
   endloop
 endfacet
 facet normal  1.119645e-01  9.937122e-01  0.000000e+00
   outer loop
     vertex  3.311997e+00  2.186020e+00  2.496500e+00
     vertex  3.645000e+00  2.148500e+00  6.965002e-01
     vertex  3.311997e+00  2.186020e+00  6.965002e-01
   endloop
 endfacet
 facet normal  3.302791e-01  9.438833e-01  0.000000e+00
   outer loop
     vertex  2.995693e+00  2.296700e+00  2.496500e+00
     vertex  3.311997e+00  2.186020e+00  6.965002e-01
     vertex  2.995693e+00  2.296700e+00  6.965002e-01
   endloop
 endfacet
 facet normal  3.302791e-01  9.438833e-01  0.000000e+00
   outer loop
     vertex  2.995693e+00  2.296700e+00  2.496500e+00
     vertex  3.311997e+00  2.186020e+00  2.496500e+00
     vertex  3.311997e+00  2.186020e+00  6.965002e-01
   endloop
 endfacet
 facet normal  5.320321e-01  8.467242e-01  0.000000e+00
   outer loop
     vertex  2.711947e+00  2.474989e+00  2.496500e+00
     vertex  2.995693e+00  2.296700e+00  6.965002e-01
     vertex  2.711947e+00  2.474989e+00  6.965002e-01
   endloop
 endfacet
 facet normal  7.071068e-01  7.071068e-01  0.000000e+00
   outer loop
     vertex  2.711947e+00  2.474989e+00  2.496500e+00
     vertex  2.711947e+00  2.474989e+00  6.965002e-01
     vertex  2.474989e+00  2.711947e+00  6.965002e-01
   endloop
 endfacet
 facet normal  5.320321e-01  8.467242e-01  0.000000e+00
   outer loop
     vertex  2.711947e+00  2.474989e+00  2.496500e+00
     vertex  2.995693e+00  2.296700e+00  2.496500e+00
     vertex  2.995693e+00  2.296700e+00  6.965002e-01
   endloop
 endfacet
 facet normal  7.071068e-01  7.071068e-01  0.000000e+00
   outer loop
     vertex  2.474989e+00  2.711947e+00  2.496500e+00
     vertex  2.711947e+00  2.474989e+00  2.496500e+00
     vertex  2.474989e+00  2.711947e+00  6.965002e-01
   endloop
 endfacet
 facet normal  8.467242e-01  5.320321e-01  0.000000e+00
   outer loop
     vertex  2.296700e+00  2.995693e+00  2.496500e+00
     vertex  2.474989e+00  2.711947e+00  6.965002e-01
     vertex  2.296700e+00  2.995693e+00  6.965002e-01
   endloop
 endfacet
 facet normal  8.467242e-01  5.320321e-01  0.000000e+00
   outer loop
     vertex  2.296700e+00  2.995693e+00  2.496500e+00
     vertex  2.474989e+00  2.711947e+00  2.496500e+00
     vertex  2.474989e+00  2.711947e+00  6.965002e-01
   endloop
 endfacet
 facet normal  9.438833e-01  3.302791e-01  0.000000e+00
   outer loop
     vertex  2.186020e+00  3.311997e+00  2.496500e+00
     vertex  2.296700e+00  2.995693e+00  6.965002e-01
     vertex  2.186020e+00  3.311997e+00  6.965002e-01
   endloop
 endfacet
 facet normal  9.937122e-01  1.119645e-01  0.000000e+00
   outer loop
     vertex  2.186020e+00  3.311997e+00  2.496500e+00
     vertex  2.186020e+00  3.311997e+00  6.965002e-01
     vertex  2.148500e+00  3.645000e+00  6.965002e-01
   endloop
 endfacet
 facet normal  9.438833e-01  3.302791e-01  0.000000e+00
   outer loop
     vertex  2.186020e+00  3.311997e+00  2.496500e+00
     vertex  2.296700e+00  2.995693e+00  2.496500e+00
     vertex  2.296700e+00  2.995693e+00  6.965002e-01
   endloop
 endfacet
 facet normal  9.937122e-01  1.119645e-01  0.000000e+00
   outer loop
     vertex  2.148500e+00  3.645000e+00  2.496500e+00
     vertex  2.186020e+00  3.311997e+00  2.496500e+00
     vertex  2.148500e+00  3.645000e+00  6.965002e-01
   endloop
 endfacet
 facet normal -1.392813e-01 -7.002145e-01  7.002145e-01
   outer loop
     vertex  3.933576e+01  4.072277e+01  3.562858e+00
     vertex  3.835500e+01  4.198422e+01  4.629216e+00
     vertex  3.835500e+01  3.985150e+01  2.496500e+00
   endloop
 endfacet
 facet normal -2.725179e-01 -6.645450e-01  6.957830e-01
   outer loop
     vertex  3.933576e+01  4.072277e+01  3.562858e+00
     vertex  4.009893e+01  4.140507e+01  4.513433e+00
     vertex  3.925856e+01  4.179684e+01  4.558470e+00
   endloop
 endfacet
 facet normal -8.416572e-02 -6.806480e-01  7.277599e-01
   outer loop
     vertex  3.933576e+01  4.072277e+01  3.562858e+00
     vertex  3.925856e+01  4.179684e+01  4.558470e+00
     vertex  3.835500e+01  4.198422e+01  4.629216e+00
   endloop
 endfacet
 facet normal -8.260799e-02 -7.331662e-01  6.750135e-01
   outer loop
     vertex  3.933576e+01  4.072277e+01  3.562858e+00
     vertex  3.835500e+01  3.985150e+01  2.496500e+00
     vertex  3.868800e+01  3.981398e+01  2.496500e+00
   endloop
 endfacet
 facet normal -2.329544e-01 -6.657455e-01  7.088831e-01
   outer loop
     vertex  3.933576e+01  4.072277e+01  3.562858e+00
     vertex  3.868800e+01  3.981398e+01  2.496500e+00
     vertex  3.900431e+01  3.970330e+01  2.496500e+00
   endloop
 endfacet
 facet normal -3.809604e-01 -6.062950e-01  6.980513e-01
   outer loop
     vertex  3.933576e+01  4.072277e+01  3.562858e+00
     vertex  3.900431e+01  3.970330e+01  2.496500e+00
     vertex  3.928805e+01  3.952501e+01  2.496500e+00
   endloop
 endfacet
 facet normal -5.643746e-01 -4.311803e-01  7.039636e-01
   outer loop
     vertex  4.016721e+01  4.016721e+01  3.562858e+00
     vertex  4.140507e+01  4.009893e+01  4.513433e+00
     vertex  4.082843e+01  4.082843e+01  4.497954e+00
   endloop
 endfacet
 facet normal -4.311803e-01 -5.643746e-01  7.039637e-01
   outer loop
     vertex  4.016721e+01  4.016721e+01  3.562858e+00
     vertex  4.082843e+01  4.082843e+01  4.497954e+00
     vertex  4.009893e+01  4.140507e+01  4.513433e+00
   endloop
 endfacet
 facet normal -4.977989e-01 -4.977989e-01  7.102060e-01
   outer loop
     vertex  4.016721e+01  4.016721e+01  3.562858e+00
     vertex  3.928805e+01  3.952501e+01  2.496500e+00
     vertex  3.952501e+01  3.928805e+01  2.496500e+00
   endloop
 endfacet
 facet normal -3.845239e-01 -5.754806e-01  7.217780e-01
   outer loop
     vertex  4.016721e+01  4.016721e+01  3.562858e+00
     vertex  4.009893e+01  4.140507e+01  4.513433e+00
     vertex  3.933576e+01  4.072277e+01  3.562858e+00
   endloop
 endfacet
 facet normal -4.010245e-01 -6.001756e-01  6.920755e-01
   outer loop
     vertex  4.016721e+01  4.016721e+01  3.562858e+00
     vertex  3.933576e+01  4.072277e+01  3.562858e+00
     vertex  3.928805e+01  3.952501e+01  2.496500e+00
   endloop
 endfacet
 facet normal -6.806480e-01 -8.416573e-02  7.277599e-01
   outer loop
     vertex  4.072277e+01  3.933576e+01  3.562858e+00
     vertex  4.198422e+01  3.835500e+01  4.629216e+00
     vertex  4.179684e+01  3.925856e+01  4.558470e+00
   endloop
 endfacet
 facet normal -6.645450e-01 -2.725179e-01  6.957830e-01
   outer loop
     vertex  4.072277e+01  3.933576e+01  3.562858e+00
     vertex  4.179684e+01  3.925856e+01  4.558470e+00
     vertex  4.140507e+01  4.009893e+01  4.513433e+00
   endloop
 endfacet
 facet normal -7.002145e-01 -1.392813e-01  7.002145e-01
   outer loop
     vertex  4.072277e+01  3.933576e+01  3.562858e+00
     vertex  3.985150e+01  3.835500e+01  2.496500e+00
     vertex  4.198422e+01  3.835500e+01  4.629216e+00
   endloop
 endfacet
 facet normal -6.062950e-01 -3.809604e-01  6.980513e-01
   outer loop
     vertex  4.072277e+01  3.933576e+01  3.562858e+00
     vertex  3.952501e+01  3.928805e+01  2.496500e+00
     vertex  3.970330e+01  3.900431e+01  2.496500e+00
   endloop
 endfacet
 facet normal -6.657455e-01 -2.329544e-01  7.088831e-01
   outer loop
     vertex  4.072277e+01  3.933576e+01  3.562858e+00
     vertex  3.970330e+01  3.900431e+01  2.496500e+00
     vertex  3.981398e+01  3.868800e+01  2.496500e+00
   endloop
 endfacet
 facet normal -7.331662e-01 -8.260799e-02  6.750135e-01
   outer loop
     vertex  4.072277e+01  3.933576e+01  3.562858e+00
     vertex  3.981398e+01  3.868800e+01  2.496500e+00
     vertex  3.985150e+01  3.835500e+01  2.496500e+00
   endloop
 endfacet
 facet normal -6.001756e-01 -4.010245e-01  6.920755e-01
   outer loop
     vertex  4.072277e+01  3.933576e+01  3.562858e+00
     vertex  4.016721e+01  4.016721e+01  3.562858e+00
     vertex  3.952501e+01  3.928805e+01  2.496500e+00
   endloop
 endfacet
 facet normal -5.754806e-01 -3.845239e-01  7.217780e-01
   outer loop
     vertex  4.072277e+01  3.933576e+01  3.562858e+00
     vertex  4.140507e+01  4.009893e+01  4.513433e+00
     vertex  4.016721e+01  4.016721e+01  3.562858e+00
   endloop
 endfacet
 facet normal -0.000000e+00 -1.000000e+00  0.000000e+00
   outer loop
     vertex  3.835500e+01  3.985150e+01  2.496500e+00
     vertex  3.645000e+00  3.985150e+01  2.496500e+00
     vertex  3.645000e+00  3.985150e+01  6.965002e-01
   endloop
 endfacet
 facet normal  0.000000e+00 -1.000000e+00 -0.000000e+00
   outer loop
     vertex  3.835500e+01  3.985150e+01  2.496500e+00
     vertex  3.645000e+00  3.985150e+01  6.965002e-01
     vertex  3.835500e+01  3.985150e+01  6.965002e-01
   endloop
 endfacet
 facet normal -7.071068e-01  4.977086e-15  7.071068e-01
   outer loop
     vertex  3.985150e+01  3.835500e+01  2.496500e+00
     vertex  4.200000e+01  3.800000e+01  4.645000e+00
     vertex  4.198422e+01  3.835500e+01  4.629216e+00
   endloop
 endfacet
 facet normal -7.071068e-01  7.388670e-17  7.071068e-01
   outer loop
     vertex  4.200000e+01  4.000000e+00  4.645000e+00
     vertex  4.200000e+01  3.800000e+01  4.645000e+00
     vertex  3.985150e+01  3.835500e+01  2.496500e+00
   endloop
 endfacet
 facet normal -7.071068e-01 -5.806601e-15  7.071068e-01
   outer loop
     vertex  3.985150e+01  3.645000e+00  2.496500e+00
     vertex  4.198422e+01  3.645000e+00  4.629216e+00
     vertex  4.200000e+01  4.000000e+00  4.645000e+00
   endloop
 endfacet
 facet normal -7.071068e-01  9.046917e-17  7.071068e-01
   outer loop
     vertex  3.985150e+01  3.645000e+00  2.496500e+00
     vertex  4.200000e+01  4.000000e+00  4.645000e+00
     vertex  3.985150e+01  3.835500e+01  2.496500e+00
   endloop
 endfacet
 facet normal -7.002145e-01  1.392813e-01  7.002145e-01
   outer loop
     vertex  4.072277e+01  2.664237e+00  3.562858e+00
     vertex  4.198422e+01  3.645000e+00  4.629216e+00
     vertex  3.985150e+01  3.645000e+00  2.496500e+00
   endloop
 endfacet
 facet normal -6.806480e-01  8.416573e-02  7.277599e-01
   outer loop
     vertex  4.072277e+01  2.664237e+00  3.562858e+00
     vertex  4.179684e+01  2.741437e+00  4.558470e+00
     vertex  4.198422e+01  3.645000e+00  4.629216e+00
   endloop
 endfacet
 facet normal -6.645450e-01  2.725179e-01  6.957830e-01
   outer loop
     vertex  4.072277e+01  2.664237e+00  3.562858e+00
     vertex  4.140507e+01  1.901075e+00  4.513433e+00
     vertex  4.179684e+01  2.741437e+00  4.558470e+00
   endloop
 endfacet
 facet normal -7.331662e-01  8.260799e-02  6.750135e-01
   outer loop
     vertex  4.072277e+01  2.664237e+00  3.562858e+00
     vertex  3.985150e+01  3.645000e+00  2.496500e+00
     vertex  3.981398e+01  3.311997e+00  2.496500e+00
   endloop
 endfacet
 facet normal -6.657455e-01  2.329544e-01  7.088831e-01
   outer loop
     vertex  4.072277e+01  2.664237e+00  3.562858e+00
     vertex  3.981398e+01  3.311997e+00  2.496500e+00
     vertex  3.970330e+01  2.995693e+00  2.496500e+00
   endloop
 endfacet
 facet normal -6.062950e-01  3.809604e-01  6.980513e-01
   outer loop
     vertex  4.072277e+01  2.664237e+00  3.562858e+00
     vertex  3.970330e+01  2.995693e+00  2.496500e+00
     vertex  3.952501e+01  2.711947e+00  2.496500e+00
   endloop
 endfacet
 facet normal -5.643746e-01  4.311803e-01  7.039636e-01
   outer loop
     vertex  4.016721e+01  1.832786e+00  3.562858e+00
     vertex  4.082843e+01  1.171573e+00  4.497954e+00
     vertex  4.140507e+01  1.901075e+00  4.513433e+00
   endloop
 endfacet
 facet normal -4.311803e-01  5.643746e-01  7.039637e-01
   outer loop
     vertex  4.016721e+01  1.832786e+00  3.562858e+00
     vertex  4.009893e+01  5.949283e-01  4.513433e+00
     vertex  4.082843e+01  1.171573e+00  4.497954e+00
   endloop
 endfacet
 facet normal -4.977989e-01  4.977989e-01  7.102060e-01
   outer loop
     vertex  4.016721e+01  1.832786e+00  3.562858e+00
     vertex  3.952501e+01  2.711947e+00  2.496500e+00
     vertex  3.928805e+01  2.474989e+00  2.496500e+00
   endloop
 endfacet
 facet normal -5.754806e-01  3.845239e-01  7.217780e-01
   outer loop
     vertex  4.016721e+01  1.832786e+00  3.562858e+00
     vertex  4.140507e+01  1.901075e+00  4.513433e+00
     vertex  4.072277e+01  2.664237e+00  3.562858e+00
   endloop
 endfacet
 facet normal -6.001756e-01  4.010245e-01  6.920755e-01
   outer loop
     vertex  4.016721e+01  1.832786e+00  3.562858e+00
     vertex  4.072277e+01  2.664237e+00  3.562858e+00
     vertex  3.952501e+01  2.711947e+00  2.496500e+00
   endloop
 endfacet
 facet normal -2.725179e-01  6.645450e-01  6.957830e-01
   outer loop
     vertex  3.933576e+01  1.277228e+00  3.562858e+00
     vertex  3.925856e+01  2.031567e-01  4.558470e+00
     vertex  4.009893e+01  5.949283e-01  4.513433e+00
   endloop
 endfacet
 facet normal -8.416572e-02  6.806480e-01  7.277599e-01
   outer loop
     vertex  3.933576e+01  1.277228e+00  3.562858e+00
     vertex  3.835500e+01  1.578427e-02  4.629216e+00
     vertex  3.925856e+01  2.031567e-01  4.558470e+00
   endloop
 endfacet
 facet normal -1.392813e-01  7.002145e-01  7.002145e-01
   outer loop
     vertex  3.933576e+01  1.277228e+00  3.562858e+00
     vertex  3.835500e+01  2.148500e+00  2.496500e+00
     vertex  3.835500e+01  1.578427e-02  4.629216e+00
   endloop
 endfacet
 facet normal -3.809604e-01  6.062950e-01  6.980513e-01
   outer loop
     vertex  3.933576e+01  1.277228e+00  3.562858e+00
     vertex  3.928805e+01  2.474989e+00  2.496500e+00
     vertex  3.900431e+01  2.296700e+00  2.496500e+00
   endloop
 endfacet
 facet normal -2.329544e-01  6.657455e-01  7.088831e-01
   outer loop
     vertex  3.933576e+01  1.277228e+00  3.562858e+00
     vertex  3.900431e+01  2.296700e+00  2.496500e+00
     vertex  3.868800e+01  2.186020e+00  2.496500e+00
   endloop
 endfacet
 facet normal -8.260799e-02  7.331662e-01  6.750135e-01
   outer loop
     vertex  3.933576e+01  1.277228e+00  3.562858e+00
     vertex  3.868800e+01  2.186020e+00  2.496500e+00
     vertex  3.835500e+01  2.148500e+00  2.496500e+00
   endloop
 endfacet
 facet normal -3.845239e-01  5.754806e-01  7.217780e-01
   outer loop
     vertex  3.933576e+01  1.277228e+00  3.562858e+00
     vertex  4.009893e+01  5.949283e-01  4.513433e+00
     vertex  4.016721e+01  1.832786e+00  3.562858e+00
   endloop
 endfacet
 facet normal -4.010245e-01  6.001756e-01  6.920755e-01
   outer loop
     vertex  3.933576e+01  1.277228e+00  3.562858e+00
     vertex  4.016721e+01  1.832786e+00  3.562858e+00
     vertex  3.928805e+01  2.474989e+00  2.496500e+00
   endloop
 endfacet
 facet normal -0.000000e+00  1.000000e+00  0.000000e+00
   outer loop
     vertex  3.645000e+00  2.148500e+00  2.496500e+00
     vertex  3.835500e+01  2.148500e+00  2.496500e+00
     vertex  3.835500e+01  2.148500e+00  6.965002e-01
   endloop
 endfacet
 facet normal  0.000000e+00  1.000000e+00  0.000000e+00
   outer loop
     vertex  3.645000e+00  2.148500e+00  2.496500e+00
     vertex  3.835500e+01  2.148500e+00  6.965002e-01
     vertex  3.645000e+00  2.148500e+00  6.965002e-01
   endloop
 endfacet
 facet normal -9.937122e-01  1.119645e-01  0.000000e+00
   outer loop
     vertex  3.981398e+01  3.311997e+00  2.496500e+00
     vertex  3.985150e+01  3.645000e+00  2.496500e+00
     vertex  3.985150e+01  3.645000e+00  6.965002e-01
   endloop
 endfacet
 facet normal -9.937122e-01  1.119645e-01  0.000000e+00
   outer loop
     vertex  3.981398e+01  3.311997e+00  2.496500e+00
     vertex  3.985150e+01  3.645000e+00  6.965002e-01
     vertex  3.981398e+01  3.311997e+00  6.965002e-01
   endloop
 endfacet
 facet normal -9.438833e-01  3.302791e-01  0.000000e+00
   outer loop
     vertex  3.970330e+01  2.995693e+00  2.496500e+00
     vertex  3.981398e+01  3.311997e+00  6.965002e-01
     vertex  3.970330e+01  2.995693e+00  6.965002e-01
   endloop
 endfacet
 facet normal -9.438833e-01  3.302791e-01  0.000000e+00
   outer loop
     vertex  3.970330e+01  2.995693e+00  2.496500e+00
     vertex  3.981398e+01  3.311997e+00  2.496500e+00
     vertex  3.981398e+01  3.311997e+00  6.965002e-01
   endloop
 endfacet
 facet normal -8.467242e-01  5.320321e-01  0.000000e+00
   outer loop
     vertex  3.952501e+01  2.711947e+00  2.496500e+00
     vertex  3.970330e+01  2.995693e+00  6.965002e-01
     vertex  3.952501e+01  2.711947e+00  6.965002e-01
   endloop
 endfacet
 facet normal -7.071068e-01  7.071068e-01  0.000000e+00
   outer loop
     vertex  3.952501e+01  2.711947e+00  2.496500e+00
     vertex  3.952501e+01  2.711947e+00  6.965002e-01
     vertex  3.928805e+01  2.474989e+00  6.965002e-01
   endloop
 endfacet
 facet normal -8.467242e-01  5.320321e-01  0.000000e+00
   outer loop
     vertex  3.952501e+01  2.711947e+00  2.496500e+00
     vertex  3.970330e+01  2.995693e+00  2.496500e+00
     vertex  3.970330e+01  2.995693e+00  6.965002e-01
   endloop
 endfacet
 facet normal -7.071068e-01  7.071068e-01  0.000000e+00
   outer loop
     vertex  3.928805e+01  2.474989e+00  2.496500e+00
     vertex  3.952501e+01  2.711947e+00  2.496500e+00
     vertex  3.928805e+01  2.474989e+00  6.965002e-01
   endloop
 endfacet
 facet normal -5.320321e-01  8.467242e-01  0.000000e+00
   outer loop
     vertex  3.900431e+01  2.296700e+00  2.496500e+00
     vertex  3.928805e+01  2.474989e+00  6.965002e-01
     vertex  3.900431e+01  2.296700e+00  6.965002e-01
   endloop
 endfacet
 facet normal -5.320321e-01  8.467242e-01  0.000000e+00
   outer loop
     vertex  3.900431e+01  2.296700e+00  2.496500e+00
     vertex  3.928805e+01  2.474989e+00  2.496500e+00
     vertex  3.928805e+01  2.474989e+00  6.965002e-01
   endloop
 endfacet
 facet normal -3.302791e-01  9.438833e-01  0.000000e+00
   outer loop
     vertex  3.868800e+01  2.186020e+00  2.496500e+00
     vertex  3.900431e+01  2.296700e+00  6.965002e-01
     vertex  3.868800e+01  2.186020e+00  6.965002e-01
   endloop
 endfacet
 facet normal -1.119645e-01  9.937122e-01  0.000000e+00
   outer loop
     vertex  3.868800e+01  2.186020e+00  2.496500e+00
     vertex  3.868800e+01  2.186020e+00  6.965002e-01
     vertex  3.835500e+01  2.148500e+00  6.965002e-01
   endloop
 endfacet
 facet normal -3.302791e-01  9.438833e-01  0.000000e+00
   outer loop
     vertex  3.868800e+01  2.186020e+00  2.496500e+00
     vertex  3.900431e+01  2.296700e+00  2.496500e+00
     vertex  3.900431e+01  2.296700e+00  6.965002e-01
   endloop
 endfacet
 facet normal -1.119645e-01  9.937122e-01  0.000000e+00
   outer loop
     vertex  3.835500e+01  2.148500e+00  2.496500e+00
     vertex  3.868800e+01  2.186020e+00  2.496500e+00
     vertex  3.835500e+01  2.148500e+00  6.965002e-01
   endloop
 endfacet
 facet normal -1.000000e+00  0.000000e+00  0.000000e+00
   outer loop
     vertex  3.985150e+01  3.645000e+00  6.965002e-01
     vertex  3.985150e+01  3.835500e+01  2.496500e+00
     vertex  3.985150e+01  3.835500e+01  6.965002e-01
   endloop
 endfacet
 facet normal -1.000000e+00  0.000000e+00  0.000000e+00
   outer loop
     vertex  3.985150e+01  3.645000e+00  2.496500e+00
     vertex  3.985150e+01  3.835500e+01  2.496500e+00
     vertex  3.985150e+01  3.645000e+00  6.965002e-01
   endloop
 endfacet
 facet normal -1.119645e-01 -9.937122e-01  0.000000e+00
   outer loop
     vertex  3.868800e+01  3.981398e+01  2.496500e+00
     vertex  3.835500e+01  3.985150e+01  2.496500e+00
     vertex  3.835500e+01  3.985150e+01  6.965002e-01
   endloop
 endfacet
 facet normal -1.119645e-01 -9.937122e-01 -0.000000e+00
   outer loop
     vertex  3.868800e+01  3.981398e+01  2.496500e+00
     vertex  3.835500e+01  3.985150e+01  6.965002e-01
     vertex  3.868800e+01  3.981398e+01  6.965002e-01
   endloop
 endfacet
 facet normal -3.302791e-01 -9.438833e-01 -0.000000e+00
   outer loop
     vertex  3.900431e+01  3.970330e+01  2.496500e+00
     vertex  3.868800e+01  3.981398e+01  6.965002e-01
     vertex  3.900431e+01  3.970330e+01  6.965002e-01
   endloop
 endfacet
 facet normal -3.302791e-01 -9.438833e-01  0.000000e+00
   outer loop
     vertex  3.900431e+01  3.970330e+01  2.496500e+00
     vertex  3.868800e+01  3.981398e+01  2.496500e+00
     vertex  3.868800e+01  3.981398e+01  6.965002e-01
   endloop
 endfacet
 facet normal -5.320321e-01 -8.467242e-01 -0.000000e+00
   outer loop
     vertex  3.928805e+01  3.952501e+01  2.496500e+00
     vertex  3.900431e+01  3.970330e+01  6.965002e-01
     vertex  3.928805e+01  3.952501e+01  6.965002e-01
   endloop
 endfacet
 facet normal -5.320321e-01 -8.467242e-01  0.000000e+00
   outer loop
     vertex  3.928805e+01  3.952501e+01  2.496500e+00
     vertex  3.900431e+01  3.970330e+01  2.496500e+00
     vertex  3.900431e+01  3.970330e+01  6.965002e-01
   endloop
 endfacet
 facet normal -7.071068e-01 -7.071068e-01 -0.000000e+00
   outer loop
     vertex  3.952501e+01  3.928805e+01  2.496500e+00
     vertex  3.928805e+01  3.952501e+01  6.965002e-01
     vertex  3.952501e+01  3.928805e+01  6.965002e-01
   endloop
 endfacet
 facet normal -8.467242e-01 -5.320321e-01 -0.000000e+00
   outer loop
     vertex  3.952501e+01  3.928805e+01  2.496500e+00
     vertex  3.952501e+01  3.928805e+01  6.965002e-01
     vertex  3.970330e+01  3.900431e+01  6.965002e-01
   endloop
 endfacet
 facet normal -7.071068e-01 -7.071068e-01  0.000000e+00
   outer loop
     vertex  3.952501e+01  3.928805e+01  2.496500e+00
     vertex  3.928805e+01  3.952501e+01  2.496500e+00
     vertex  3.928805e+01  3.952501e+01  6.965002e-01
   endloop
 endfacet
 facet normal -8.467242e-01 -5.320321e-01 -0.000000e+00
   outer loop
     vertex  3.970330e+01  3.900431e+01  2.496500e+00
     vertex  3.952501e+01  3.928805e+01  2.496500e+00
     vertex  3.970330e+01  3.900431e+01  6.965002e-01
   endloop
 endfacet
 facet normal -9.438833e-01 -3.302791e-01 -0.000000e+00
   outer loop
     vertex  3.981398e+01  3.868800e+01  2.496500e+00
     vertex  3.970330e+01  3.900431e+01  6.965002e-01
     vertex  3.981398e+01  3.868800e+01  6.965002e-01
   endloop
 endfacet
 facet normal -9.438833e-01 -3.302791e-01  0.000000e+00
   outer loop
     vertex  3.981398e+01  3.868800e+01  2.496500e+00
     vertex  3.970330e+01  3.900431e+01  2.496500e+00
     vertex  3.970330e+01  3.900431e+01  6.965002e-01
   endloop
 endfacet
 facet normal -9.937122e-01 -1.119645e-01 -0.000000e+00
   outer loop
     vertex  3.985150e+01  3.835500e+01  2.496500e+00
     vertex  3.981398e+01  3.868800e+01  6.965002e-01
     vertex  3.985150e+01  3.835500e+01  6.965002e-01
   endloop
 endfacet
 facet normal -9.937122e-01 -1.119645e-01  0.000000e+00
   outer loop
     vertex  3.985150e+01  3.835500e+01  2.496500e+00
     vertex  3.981398e+01  3.868800e+01  2.496500e+00
     vertex  3.981398e+01  3.868800e+01  6.965002e-01
   endloop
 endfacet
endsolid
