<?xml version="1.0" encoding="UTF-8" standalone="no"?>
<!-- Created with Inkscape (http://www.inkscape.org/) -->

<svg
   width="240.94687mm"
   height="49.488583mm"
   viewBox="0 0 240.94687 49.488583"
   version="1.1"
   id="svg5"
   inkscape:version="1.1 (c68e22c387, 2021-05-23)"
   sodipodi:docname="text_logo.svg"
   xmlns:inkscape="http://www.inkscape.org/namespaces/inkscape"
   xmlns:sodipodi="http://sodipodi.sourceforge.net/DTD/sodipodi-0.dtd"
   xmlns="http://www.w3.org/2000/svg"
   xmlns:svg="http://www.w3.org/2000/svg">
  <sodipodi:namedview
     id="namedview7"
     pagecolor="#ffffff"
     bordercolor="#666666"
     borderopacity="1.0"
     inkscape:pageshadow="2"
     inkscape:pageopacity="0.0"
     inkscape:pagecheckerboard="0"
     inkscape:document-units="mm"
     showgrid="false"
     fit-margin-top="0"
     fit-margin-left="0"
     fit-margin-right="0"
     fit-margin-bottom="0"
     inkscape:zoom="0.77771465"
     inkscape:cx="67.505479"
     inkscape:cy="413.3907"
     inkscape:window-width="2560"
     inkscape:window-height="1377"
     inkscape:window-x="2552"
     inkscape:window-y="-8"
     inkscape:window-maximized="1"
     inkscape:current-layer="layer1" />
  <defs
     id="defs2">
    <clipPath
       clipPathUnits="userSpaceOnUse"
       id="clipPath49">
      <path
         d="M 0,612 H 792 V 0 H 0 Z"
         id="path47" />
    </clipPath>
  </defs>
  <g
     inkscape:label="Layer 1"
     inkscape:groupmode="layer"
     id="layer1"
     transform="translate(10.58684,-39.279316)">
    <g
       id="g722"
       transform="translate(258.5567,90.154639)">
      <g
         id="g17"
         transform="matrix(0.35277777,0,0,-0.35277777,-266.19326,-49.736062)">
        <path
           d="m 0,0 h -7.863 v -84.342 h 47.175 v 7.147 H 0 Z"
           style="fill:#020203;fill-opacity:1;fill-rule:nonzero;stroke:none"
           id="path19" />
      </g>
      <g
         id="g21"
         transform="matrix(0.35277777,0,0,-0.35277777,-266.19326,-49.736062)">
        <path
           d="m 0,0 h -7.863 v -84.342 h 47.175 v 7.147 H 0 Z"
           style="fill:none;stroke:#2b161c;stroke-width:1;stroke-linecap:butt;stroke-linejoin:miter;stroke-miterlimit:10;stroke-dasharray:none;stroke-opacity:1"
           id="path23" />
      </g>
      <path
         d="m -245.85322,-19.981939 h 2.77389 v -29.753982 h -2.77389 z"
         style="fill:#2c171d;fill-opacity:1;fill-rule:nonzero;stroke:#2b161c;stroke-width:0.352778;stroke-linecap:butt;stroke-linejoin:miter;stroke-miterlimit:10;stroke-dasharray:none;stroke-opacity:1"
         id="path25" />
      <g
         id="g27"
         transform="matrix(0.35277777,0,0,-0.35277777,-178.61205,-36.624018)">
        <path
           d="m 0,0 h -47.174 v 37.168 h -7.864 v -84.342 h 7.864 V -7.147 H 0 V -47.174 H 7.863 V 37.168 H 0 Z"
           style="fill:#631332;fill-opacity:1;fill-rule:nonzero;stroke:none"
           id="path29" />
      </g>
      <g
         id="g31"
         transform="matrix(0.35277777,0,0,-0.35277777,-178.61205,-36.624018)">
        <path
           d="m 0,0 h -47.174 v 37.168 h -7.864 v -84.342 h 7.864 V -7.147 H 0 V -47.174 H 7.863 V 37.168 H 0 Z"
           style="fill:none;stroke:#631332;stroke-width:1;stroke-linecap:butt;stroke-linejoin:miter;stroke-miterlimit:10;stroke-dasharray:none;stroke-opacity:1"
           id="path33" />
      </g>
      <g
         id="g35"
         transform="matrix(0.35277777,0,0,-0.35277777,-169.15679,-47.214583)">
        <path
           d="M 0,0 H 28.828 V -77.195 H 36.69 V 0 H 65.52 V 7.147 H 0 Z"
           style="fill:#711626;fill-opacity:1;fill-rule:nonzero;stroke:none"
           id="path37" />
      </g>
      <g
         id="g39"
         transform="matrix(0.35277777,0,0,-0.35277777,-169.15679,-47.214583)">
        <path
           d="M 0,0 H 28.828 V -77.195 H 36.69 V 0 H 65.52 V 7.147 H 0 Z"
           style="fill:none;stroke:#711626;stroke-width:1;stroke-linecap:butt;stroke-linejoin:miter;stroke-miterlimit:10;stroke-dasharray:none;stroke-opacity:1"
           id="path41" />
      </g>
      <g
         id="g51"
         transform="matrix(0.35277777,0,0,-0.35277777,-122.95049,-26.43308)">
        <path
           d="m 0,0 c -0.518,-1.866 -1.529,-3.633 -3.038,-5.301 -1.509,-1.67 -3.675,-3.058 -6.492,-4.171 -2.821,-1.112 -6.533,-1.667 -11.139,-1.667 h -17.987 v 33.594 h 19.177 c 2.462,0 4.904,-0.32 7.328,-0.953 2.422,-0.637 4.587,-1.65 6.493,-3.039 1.906,-1.388 3.455,-3.196 4.646,-5.419 C 0.179,10.819 0.774,8.16 0.774,5.063 0.774,3.553 0.516,1.864 0,0 m -38.656,58.908 h 17.391 c 2.462,0 4.804,-0.239 7.03,-0.715 2.221,-0.476 4.17,-1.292 5.837,-2.442 1.668,-1.152 2.997,-2.701 3.99,-4.646 0.993,-1.947 1.49,-4.389 1.49,-7.327 0,-1.351 -0.239,-2.84 -0.716,-4.466 -0.475,-1.629 -1.429,-3.157 -2.858,-4.587 -1.43,-1.429 -3.416,-2.641 -5.957,-3.633 -2.543,-0.994 -5.836,-1.489 -9.888,-1.489 H -38.656 Z M 3.396,19.774 c -1.668,1.789 -3.655,3.217 -5.957,4.289 -2.305,1.073 -4.846,1.727 -7.625,1.966 v 0.239 c 5.004,1.031 8.775,3.136 11.318,6.313 2.541,3.175 3.812,6.909 3.812,11.197 0,4.766 -0.816,8.597 -2.442,11.497 -1.629,2.898 -3.734,5.161 -6.315,6.79 -2.581,1.627 -5.499,2.699 -8.755,3.216 -3.257,0.516 -6.474,0.775 -9.649,0.775 H -46.52 v -84.343 h 26.923 c 2.859,0 5.936,0.318 9.233,0.953 3.294,0.635 6.352,1.827 9.173,3.575 2.818,1.745 5.161,4.149 7.028,7.205 1.865,3.059 2.8,7.01 2.8,11.854 0,2.938 -0.458,5.638 -1.369,8.1 -0.914,2.463 -2.206,4.588 -3.872,6.374"
           style="fill:#881628;fill-opacity:1;fill-rule:nonzero;stroke:none"
           id="path53" />
      </g>
      <g
         id="g55"
         transform="matrix(0.35277777,0,0,-0.35277777,-122.95049,-26.43308)">
        <path
           d="m 0,0 c -0.518,-1.866 -1.529,-3.633 -3.038,-5.301 -1.509,-1.67 -3.675,-3.058 -6.492,-4.171 -2.821,-1.112 -6.533,-1.667 -11.139,-1.667 h -17.987 v 33.594 h 19.177 c 2.462,0 4.904,-0.32 7.328,-0.953 2.422,-0.637 4.587,-1.65 6.493,-3.039 1.906,-1.388 3.455,-3.196 4.646,-5.419 C 0.179,10.819 0.774,8.16 0.774,5.063 0.774,3.553 0.516,1.864 0,0 Z m -38.656,58.908 h 17.391 c 2.462,0 4.804,-0.239 7.03,-0.715 2.221,-0.476 4.17,-1.292 5.837,-2.442 1.668,-1.152 2.997,-2.701 3.99,-4.646 0.993,-1.947 1.49,-4.389 1.49,-7.327 0,-1.351 -0.239,-2.84 -0.716,-4.466 -0.475,-1.629 -1.429,-3.157 -2.858,-4.587 -1.43,-1.429 -3.416,-2.641 -5.957,-3.633 -2.543,-0.994 -5.836,-1.489 -9.888,-1.489 H -38.656 Z M 3.396,19.774 c -1.668,1.789 -3.655,3.217 -5.957,4.289 -2.305,1.073 -4.846,1.727 -7.625,1.966 v 0.239 c 5.004,1.031 8.775,3.136 11.318,6.313 2.541,3.175 3.812,6.909 3.812,11.197 0,4.766 -0.816,8.597 -2.442,11.497 -1.629,2.898 -3.734,5.161 -6.315,6.79 -2.581,1.627 -5.499,2.699 -8.755,3.216 -3.257,0.516 -6.474,0.775 -9.649,0.775 H -46.52 v -84.343 h 26.923 c 2.859,0 5.936,0.318 9.233,0.953 3.294,0.635 6.352,1.827 9.173,3.575 2.818,1.745 5.161,4.149 7.028,7.205 1.865,3.059 2.8,7.01 2.8,11.854 0,2.938 -0.458,5.638 -1.369,8.1 -0.914,2.463 -2.206,4.588 -3.872,6.374 z"
           style="fill:none;stroke:#881628;stroke-width:1;stroke-linecap:butt;stroke-linejoin:miter;stroke-miterlimit:10;stroke-dasharray:none;stroke-opacity:1"
           id="path57" />
      </g>
      <g
         id="g59"
         transform="matrix(0.35277777,0,0,-0.35277777,-92.419373,-32.085638)">
        <path
           d="m 0,0 c 0,-3.02 -0.278,-6.236 -0.834,-9.651 -0.556,-3.415 -1.649,-6.593 -3.275,-9.53 -1.629,-2.938 -3.931,-5.361 -6.911,-7.266 -2.977,-1.905 -6.928,-2.86 -11.852,-2.86 -4.925,0 -8.875,0.955 -11.853,2.86 -2.978,1.905 -5.283,4.328 -6.91,7.266 -1.629,2.937 -2.721,6.115 -3.275,9.53 -0.558,3.415 -0.834,6.631 -0.834,9.651 v 50.033 h -7.862 V -2.026 c 0,-4.528 0.514,-8.856 1.547,-12.984 1.032,-4.133 2.759,-7.785 5.183,-10.96 2.421,-3.177 5.599,-5.719 9.53,-7.625 3.931,-1.907 8.755,-2.86 14.474,-2.86 5.719,0 10.543,0.953 14.475,2.86 3.93,1.906 7.105,4.448 9.529,7.625 2.421,3.175 4.149,6.827 5.181,10.96 1.033,4.128 1.549,8.456 1.549,12.984 V 50.033 H 0 Z"
           style="fill:#a11c2e;fill-opacity:1;fill-rule:nonzero;stroke:none"
           id="path61" />
      </g>
      <g
         id="g63"
         transform="matrix(0.35277777,0,0,-0.35277777,-92.419373,-32.085638)">
        <path
           d="m 0,0 c 0,-3.02 -0.278,-6.236 -0.834,-9.651 -0.556,-3.415 -1.649,-6.593 -3.275,-9.53 -1.629,-2.938 -3.931,-5.361 -6.911,-7.266 -2.977,-1.905 -6.928,-2.86 -11.852,-2.86 -4.925,0 -8.875,0.955 -11.853,2.86 -2.978,1.905 -5.283,4.328 -6.91,7.266 -1.629,2.937 -2.721,6.115 -3.275,9.53 -0.558,3.415 -0.834,6.631 -0.834,9.651 v 50.033 h -7.862 V -2.026 c 0,-4.528 0.514,-8.856 1.547,-12.984 1.032,-4.133 2.759,-7.785 5.183,-10.96 2.421,-3.177 5.599,-5.719 9.53,-7.625 3.931,-1.907 8.755,-2.86 14.474,-2.86 5.719,0 10.543,0.953 14.475,2.86 3.93,1.906 7.105,4.448 9.529,7.625 2.421,3.175 4.149,6.827 5.181,10.96 1.033,4.128 1.549,8.456 1.549,12.984 V 50.033 H 0 Z"
           style="fill:none;stroke:#a21c2f;stroke-width:1;stroke-linecap:butt;stroke-linejoin:miter;stroke-miterlimit:10;stroke-dasharray:none;stroke-opacity:1"
           id="path65" />
      </g>
      <g
         id="g67"
         transform="matrix(0.35277777,0,0,-0.35277777,-77.164133,-36.624018)">
        <path
           d="m 0,0 v 30.021 h 16.677 c 4.128,0 7.484,-0.518 10.065,-1.549 2.582,-1.033 4.589,-2.305 6.019,-3.813 1.427,-1.509 2.399,-3.137 2.918,-4.883 0.516,-1.748 0.773,-3.337 0.773,-4.765 0,-1.43 -0.257,-3.02 -0.773,-4.765 C 35.16,8.497 34.188,6.869 32.761,5.361 31.331,3.851 29.324,2.58 26.742,1.548 24.161,0.516 20.805,0 16.677,0 Z m 30.02,-5.002 c 2.54,0.792 4.864,2.003 6.967,3.632 2.104,1.627 3.852,3.752 5.242,6.373 1.389,2.622 2.085,5.956 2.085,10.008 0,3.651 -0.593,6.748 -1.786,9.291 -1.19,2.541 -2.7,4.646 -4.528,6.315 -1.827,1.667 -3.892,2.936 -6.194,3.811 -2.303,0.874 -4.567,1.508 -6.789,1.906 -2.225,0.396 -4.289,0.635 -6.195,0.715 -1.907,0.077 -3.415,0.119 -4.527,0.119 H -7.862 V -47.174 H 0 v 40.027 h 14.65 l 23.709,-40.027 h 8.934 L 22.753,-6.67 c 2.303,0.315 4.724,0.872 7.267,1.668"
           style="fill:#d12028;fill-opacity:1;fill-rule:nonzero;stroke:none"
           id="path69" />
      </g>
      <g
         id="g71"
         transform="matrix(0.35277777,0,0,-0.35277777,-77.164133,-36.624018)">
        <path
           d="m 0,0 v 30.021 h 16.677 c 4.128,0 7.484,-0.518 10.065,-1.549 2.582,-1.033 4.589,-2.305 6.019,-3.813 1.427,-1.509 2.399,-3.137 2.918,-4.883 0.516,-1.748 0.773,-3.337 0.773,-4.765 0,-1.43 -0.257,-3.02 -0.773,-4.765 C 35.16,8.497 34.188,6.869 32.761,5.361 31.331,3.851 29.324,2.58 26.742,1.548 24.161,0.516 20.805,0 16.677,0 Z m 30.02,-5.002 c 2.54,0.792 4.864,2.003 6.967,3.632 2.104,1.627 3.852,3.752 5.242,6.373 1.389,2.622 2.085,5.956 2.085,10.008 0,3.651 -0.593,6.748 -1.786,9.291 -1.19,2.541 -2.7,4.646 -4.528,6.315 -1.827,1.667 -3.892,2.936 -6.194,3.811 -2.303,0.874 -4.567,1.508 -6.789,1.906 -2.225,0.396 -4.289,0.635 -6.195,0.715 -1.907,0.077 -3.415,0.119 -4.527,0.119 H -7.862 V -47.174 H 0 v 40.027 h 14.65 l 23.709,-40.027 h 8.934 L 22.753,-6.67 c 2.303,0.315 4.724,0.872 7.267,1.668 z"
           style="fill:none;stroke:#d12028;stroke-width:1;stroke-linecap:butt;stroke-linejoin:miter;stroke-miterlimit:10;stroke-dasharray:none;stroke-opacity:1"
           id="path73" />
      </g>
      <g
         id="g75"
         transform="matrix(0.35277777,0,0,-0.35277777,-31.147307,-49.736062)">
        <path
           d="M 0,0 V -73.86 H -0.237 L -51.58,0 h -10.126 v -84.342 h 7.862 v 73.859 h 0.238 L -2.262,-84.342 H 7.864 V 0 Z"
           style="fill:#eb2227;fill-opacity:1;fill-rule:nonzero;stroke:none"
           id="path77" />
      </g>
      <g
         id="g79"
         transform="matrix(0.35277777,0,0,-0.35277777,-31.147307,-49.736062)">
        <path
           d="M 0,0 V -73.86 H -0.237 L -51.58,0 h -10.126 v -84.342 h 7.862 v 73.859 h 0.238 L -2.262,-84.342 H 7.864 V 0 Z"
           style="fill:none;stroke:#e92629;stroke-width:1;stroke-linecap:butt;stroke-linejoin:miter;stroke-miterlimit:10;stroke-dasharray:none;stroke-opacity:1"
           id="path81" />
      </g>
      <g
         id="g83"
         transform="matrix(0.35277777,0,0,-0.35277777,-246.54742,-2.1062303)">
        <path
           d="m 0,0 h 3.952 c 1.011,0 1.827,0.123 2.446,0.367 0.62,0.245 1.095,0.55 1.427,0.917 0.331,0.366 0.553,0.754 0.667,1.165 0.113,0.408 0.17,0.779 0.17,1.112 C 8.662,4.24 8.531,4.825 8.27,5.314 8.008,5.801 7.668,6.2 7.249,6.504 6.83,6.81 6.354,7.032 5.822,7.171 5.291,7.312 4.753,7.381 4.213,7.381 H 0 Z m 0,8.951 h 3.585 c 0.89,0 1.613,0.108 2.172,0.328 0.558,0.216 0.995,0.483 1.308,0.796 0.315,0.316 0.523,0.651 0.628,1.008 0.105,0.358 0.158,0.685 0.158,0.981 0,0.646 -0.11,1.182 -0.327,1.61 -0.218,0.428 -0.511,0.768 -0.877,1.021 -0.366,0.254 -0.794,0.431 -1.282,0.537 -0.489,0.104 -1.004,0.157 -1.544,0.157 H 0 Z m -1.728,8.007 h 5.339 c 0.698,0 1.404,-0.057 2.12,-0.169 0.715,-0.114 1.356,-0.349 1.923,-0.707 0.567,-0.358 1.03,-0.856 1.388,-1.491 0.356,-0.638 0.536,-1.479 0.536,-2.527 0,-0.94 -0.279,-1.762 -0.837,-2.459 C 8.182,8.906 7.354,8.444 6.254,8.218 V 8.165 C 6.865,8.114 7.423,7.97 7.929,7.735 8.435,7.498 8.871,7.184 9.237,6.792 9.604,6.398 9.888,5.933 10.087,5.393 10.289,4.85 10.39,4.257 10.39,3.611 10.39,2.548 10.184,1.68 9.774,1.008 9.364,0.337 8.85,-0.19 8.23,-0.574 7.611,-0.959 6.939,-1.22 6.215,-1.359 5.491,-1.5 4.815,-1.569 4.187,-1.569 h -5.915 z"
           style="fill:#010101;fill-opacity:1;fill-rule:nonzero;stroke:none"
           id="path85" />
      </g>
      <g
         id="g87"
         transform="matrix(0.35277777,0,0,-0.35277777,-240.64823,-8.0888121)">
        <path
           d="M 0,0 H 11.331 V -1.569 H 1.727 v -6.596 h 9.002 V -9.734 H 1.727 v -7.224 H 11.75 v -1.57 H 0 Z"
           style="fill:#010101;fill-opacity:1;fill-rule:nonzero;stroke:none"
           id="path89" />
      </g>
      <g
         id="g91"
         transform="matrix(0.35277777,0,0,-0.35277777,-233.03197,-7.535198)">
        <path
           d="M 0,0 H -6.333 V 1.569 H 8.06 V 0 H 1.727 V -16.958 H 0 Z"
           style="fill:#010101;fill-opacity:1;fill-rule:nonzero;stroke:none"
           id="path93" />
      </g>
      <g
         id="g95"
         transform="matrix(0.35277777,0,0,-0.35277777,-227.04043,-7.535198)">
        <path
           d="M 0,0 H -6.333 V 1.569 H 8.06 V 0 H 1.728 V -16.958 H 0 Z"
           style="fill:#010101;fill-opacity:1;fill-rule:nonzero;stroke:none"
           id="path97" />
      </g>
      <g
         id="g99"
         transform="matrix(0.35277777,0,0,-0.35277777,-222.49877,-8.0888121)">
        <path
           d="M 0,0 H 11.331 V -1.569 H 1.728 v -6.596 h 9.001 V -9.734 H 1.728 v -7.224 H 11.75 v -1.57 H 0 Z"
           style="fill:#010101;fill-opacity:1;fill-rule:nonzero;stroke:none"
           id="path101" />
      </g>
      <g
         id="g103"
         transform="matrix(0.35277777,0,0,-0.35277777,-215.72261,-5.208558)">
        <path
           d="M 0,0 H 3.664 C 4.57,0 5.308,0.112 5.875,0.341 6.442,0.568 6.882,0.845 7.197,1.178 7.51,1.508 7.724,1.866 7.837,2.251 7.951,2.635 8.008,2.984 8.008,3.298 8.008,3.611 7.951,3.96 7.837,4.344 7.724,4.728 7.51,5.085 7.197,5.418 6.882,5.748 6.442,6.028 5.875,6.254 5.308,6.481 4.57,6.595 3.664,6.595 H 0 Z M -1.727,8.165 H 3.14 C 3.384,8.165 3.716,8.156 4.135,8.139 4.554,8.12 5.007,8.069 5.496,7.982 5.984,7.894 6.481,7.754 6.987,7.563 7.493,7.371 7.946,7.091 8.348,6.725 8.749,6.358 9.081,5.896 9.342,5.339 9.604,4.78 9.735,4.101 9.735,3.298 9.735,2.408 9.582,1.675 9.276,1.099 8.972,0.523 8.587,0.057 8.125,-0.301 7.663,-0.659 7.152,-0.925 6.594,-1.099 6.036,-1.273 5.504,-1.396 4.999,-1.466 l 5.391,-8.897 H 8.426 L 3.219,-1.569 H 0 v -8.794 h -1.727 z"
           style="fill:#010101;fill-opacity:1;fill-rule:nonzero;stroke:none"
           id="path105" />
      </g>
      <g
         id="g107"
         transform="matrix(0.35277777,0,0,-0.35277777,-206.89661,-2.7623617)">
        <path
           d="m 0,0 c 0.453,-0.786 1.042,-1.371 1.766,-1.754 0.723,-0.385 1.547,-0.576 2.473,-0.576 0.576,0 1.116,0.087 1.622,0.263 0.507,0.173 0.947,0.417 1.322,0.731 0.375,0.315 0.671,0.694 0.889,1.139 0.219,0.445 0.327,0.947 0.327,1.504 0,0.646 -0.135,1.177 -0.405,1.597 C 7.723,3.323 7.362,3.666 6.909,3.937 6.454,4.208 5.944,4.439 5.377,4.632 4.81,4.822 4.226,5.015 3.624,5.206 3.022,5.398 2.438,5.617 1.87,5.86 1.303,6.106 0.793,6.424 0.34,6.815 c -0.455,0.394 -0.816,0.886 -1.087,1.479 -0.27,0.593 -0.405,1.326 -0.405,2.198 0,0.82 0.161,1.549 0.484,2.186 0.323,0.637 0.759,1.169 1.309,1.597 0.549,0.428 1.181,0.75 1.897,0.968 0.715,0.218 1.465,0.326 2.251,0.326 1.011,0 1.949,-0.178 2.812,-0.536 0.864,-0.358 1.61,-0.955 2.238,-1.792 L 8.348,12.167 C 7.912,12.777 7.401,13.237 6.816,13.542 6.232,13.847 5.538,14 4.735,14 4.177,14 3.646,13.925 3.14,13.777 2.633,13.629 2.193,13.411 1.818,13.123 1.443,12.835 1.142,12.473 0.915,12.036 0.688,11.6 0.575,11.085 0.575,10.492 0.575,9.569 0.811,8.857 1.281,8.359 1.752,7.864 2.341,7.47 3.049,7.182 3.755,6.894 4.521,6.642 5.351,6.424 6.179,6.206 6.948,5.913 7.654,5.547 8.36,5.181 8.949,4.67 9.42,4.016 9.892,3.361 10.127,2.459 10.127,1.307 10.127,0.47 9.97,-0.271 9.656,-0.917 9.342,-1.563 8.918,-2.107 8.387,-2.552 7.854,-2.997 7.239,-3.334 6.542,-3.561 5.843,-3.787 5.12,-3.899 4.369,-3.899 c -1.221,0 -2.347,0.213 -3.375,0.639 -1.03,0.428 -1.91,1.148 -2.643,2.161 z"
           style="fill:#010101;fill-opacity:1;fill-rule:nonzero;stroke:none"
           id="path109" />
      </g>
      <g
         id="g111"
         transform="matrix(0.35277777,0,0,-0.35277777,-201.06237,-4.82082)">
        <path
           d="m 0,0 c 0,-1.152 0.183,-2.224 0.549,-3.219 0.367,-0.994 0.89,-1.858 1.571,-2.591 0.68,-0.732 1.505,-1.309 2.473,-1.728 0.969,-0.417 2.054,-0.627 3.258,-0.627 1.204,0 2.29,0.21 3.257,0.627 0.97,0.419 1.793,0.996 2.475,1.728 0.679,0.733 1.202,1.597 1.569,2.591 0.366,0.995 0.549,2.067 0.549,3.219 0,1.152 -0.183,2.224 -0.549,3.219 C 14.785,4.212 14.262,5.077 13.583,5.81 12.901,6.542 12.078,7.118 11.108,7.538 10.141,7.955 9.055,8.165 7.851,8.165 6.647,8.165 5.562,7.955 4.593,7.538 3.625,7.118 2.8,6.542 2.12,5.81 1.439,5.077 0.916,4.212 0.549,3.219 0.183,2.224 0,1.152 0,0 m -1.728,0 c 0,1.413 0.237,2.713 0.708,3.899 0.47,1.186 1.124,2.211 1.962,3.076 0.838,0.863 1.845,1.539 3.023,2.026 1.177,0.49 2.472,0.733 3.886,0.733 1.413,0 2.709,-0.243 3.887,-0.733 C 12.915,8.514 13.922,7.838 14.76,6.975 15.598,6.11 16.251,5.085 16.722,3.899 17.193,2.713 17.429,1.413 17.429,0 c 0,-1.413 -0.236,-2.717 -0.707,-3.912 C 16.251,-5.108 15.598,-6.136 14.76,-7 13.922,-7.864 12.915,-8.536 11.738,-9.016 10.56,-9.495 9.264,-9.734 7.851,-9.734 6.437,-9.734 5.142,-9.495 3.965,-9.016 2.787,-8.536 1.78,-7.864 0.942,-7 0.104,-6.136 -0.55,-5.108 -1.02,-3.912 -1.491,-2.717 -1.728,-1.413 -1.728,0"
           style="fill:#010101;fill-opacity:1;fill-rule:nonzero;stroke:none"
           id="path113" />
      </g>
      <g
         id="g115"
         transform="matrix(0.35277777,0,0,-0.35277777,-192.8551,-8.0888121)">
        <path
           d="M 0,0 H 11.096 V -1.569 H 1.727 v -6.596 h 8.714 V -9.734 H 1.727 v -8.794 H 0 Z"
           style="fill:#010101;fill-opacity:1;fill-rule:nonzero;stroke:none"
           id="path117" />
      </g>
      <g
         id="g119"
         transform="matrix(0.35277777,0,0,-0.35277777,-185.58026,-7.535198)">
        <path
           d="M 0,0 H -6.333 V 1.569 H 8.06 V 0 H 1.727 V -16.958 H 0 Z"
           style="fill:#010101;fill-opacity:1;fill-rule:nonzero;stroke:none"
           id="path121" />
      </g>
      <g
         id="g123"
         transform="matrix(0.35277777,0,0,-0.35277777,-181.88748,-8.0888121)">
        <path
           d="M 0,0 H 1.779 L 6.385,-16.408 H 6.437 L 11.122,0 h 2.198 l 4.684,-16.408 h 0.053 L 22.663,0 h 1.778 l -5.39,-18.528 h -2.12 L 12.247,-2.042 H 12.194 L 7.51,-18.528 H 5.39 Z"
           style="fill:#010101;fill-opacity:1;fill-rule:nonzero;stroke:none"
           id="path125" />
      </g>
      <g
         id="g127"
         transform="matrix(0.35277777,0,0,-0.35277777,-169.50717,-7.4239319)">
        <path
           d="M 0,0 -4.318,-10.153 H 4.186 Z M -0.811,1.885 H 0.968 L 8.766,-16.643 H 6.83 l -2.015,4.92 h -9.814 l -2.093,-4.92 h -1.805 z"
           style="fill:#010101;fill-opacity:1;fill-rule:nonzero;stroke:none"
           id="path129" />
      </g>
      <g
         id="g131"
         transform="matrix(0.35277777,0,0,-0.35277777,-164.17123,-5.208558)">
        <path
           d="M 0,0 H 3.664 C 4.57,0 5.308,0.112 5.875,0.341 6.442,0.568 6.882,0.845 7.197,1.178 7.51,1.508 7.724,1.866 7.837,2.251 7.951,2.635 8.008,2.984 8.008,3.298 8.008,3.611 7.951,3.96 7.837,4.344 7.724,4.728 7.51,5.085 7.197,5.418 6.882,5.748 6.442,6.028 5.875,6.254 5.308,6.481 4.57,6.595 3.664,6.595 H 0 Z M -1.727,8.165 H 3.14 C 3.384,8.165 3.716,8.156 4.135,8.139 4.554,8.12 5.007,8.069 5.496,7.982 5.984,7.894 6.481,7.754 6.987,7.563 7.493,7.371 7.946,7.091 8.348,6.725 8.749,6.358 9.081,5.896 9.342,5.339 9.604,4.78 9.735,4.101 9.735,3.298 9.735,2.408 9.582,1.675 9.276,1.099 8.972,0.523 8.587,0.057 8.125,-0.301 7.663,-0.659 7.152,-0.925 6.594,-1.099 6.036,-1.273 5.504,-1.396 4.999,-1.466 l 5.391,-8.897 H 8.426 L 3.219,-1.569 H 0 v -8.794 h -1.727 z"
           style="fill:#010101;fill-opacity:1;fill-rule:nonzero;stroke:none"
           id="path133" />
      </g>
      <g
         id="g135"
         transform="matrix(0.35277777,0,0,-0.35277777,-158.61378,-8.0888121)">
        <path
           d="M 0,0 H 11.331 V -1.569 H 1.727 v -6.596 h 9.002 V -9.734 H 1.727 v -7.224 H 11.75 v -1.57 H 0 Z"
           style="fill:#010101;fill-opacity:1;fill-rule:nonzero;stroke:none"
           id="path137" />
      </g>
      <g
         id="g139"
         transform="matrix(0.35277777,0,0,-0.35277777,-149.35407,-8.0888121)">
        <path
           d="M 0,0 H 11.094 V -1.569 H 1.726 v -6.596 h 8.715 V -9.734 H 1.726 v -8.794 H 0 Z"
           style="fill:#010101;fill-opacity:1;fill-rule:nonzero;stroke:none"
           id="path141" />
      </g>
      <g
         id="g143"
         transform="matrix(0.35277777,0,0,-0.35277777,-143.34373,-4.82082)">
        <path
           d="M 0,0 C 0,-1.152 0.182,-2.224 0.548,-3.219 0.914,-4.213 1.437,-5.077 2.117,-5.81 2.8,-6.542 3.623,-7.119 4.591,-7.538 5.56,-7.955 6.646,-8.165 7.849,-8.165 c 1.205,0 2.292,0.21 3.259,0.627 0.968,0.419 1.792,0.996 2.472,1.728 0.682,0.733 1.205,1.597 1.571,2.591 C 15.518,-2.224 15.7,-1.152 15.7,0 15.7,1.152 15.518,2.224 15.151,3.219 14.785,4.212 14.262,5.077 13.58,5.81 12.9,6.542 12.076,7.118 11.108,7.538 10.141,7.955 9.054,8.165 7.849,8.165 6.646,8.165 5.56,7.955 4.591,7.538 3.623,7.118 2.8,6.542 2.117,5.81 1.437,5.077 0.914,4.212 0.548,3.219 0.182,2.224 0,1.152 0,0 m -1.729,0 c 0,1.413 0.236,2.713 0.708,3.899 0.47,1.186 1.125,2.211 1.96,3.076 0.839,0.863 1.848,1.539 3.026,2.026 1.177,0.49 2.472,0.733 3.884,0.733 1.415,0 2.709,-0.243 3.886,-0.733 1.178,-0.487 2.186,-1.163 3.023,-2.026 0.839,-0.865 1.493,-1.89 1.963,-3.076 0.47,-1.186 0.708,-2.486 0.708,-3.899 0,-1.413 -0.238,-2.717 -0.708,-3.912 C 16.251,-5.108 15.597,-6.136 14.758,-7 13.921,-7.864 12.913,-8.536 11.735,-9.016 10.558,-9.495 9.264,-9.734 7.849,-9.734 c -1.412,0 -2.707,0.239 -3.884,0.718 -1.178,0.48 -2.187,1.152 -3.026,2.016 -0.835,0.864 -1.49,1.892 -1.96,3.088 -0.472,1.195 -0.708,2.499 -0.708,3.912"
           style="fill:#010101;fill-opacity:1;fill-rule:nonzero;stroke:none"
           id="path145" />
      </g>
      <g
         id="g147"
         transform="matrix(0.35277777,0,0,-0.35277777,-134.52809,-5.208558)">
        <path
           d="M 0,0 H 3.664 C 4.57,0 5.308,0.112 5.875,0.341 6.443,0.568 6.884,0.845 7.197,1.178 7.511,1.508 7.725,1.866 7.839,2.251 7.951,2.635 8.008,2.984 8.008,3.298 8.008,3.611 7.951,3.96 7.839,4.344 7.725,4.728 7.511,5.085 7.197,5.418 6.884,5.748 6.443,6.028 5.875,6.254 5.308,6.481 4.57,6.595 3.664,6.595 H 0 Z M -1.726,8.165 H 3.141 C 3.385,8.165 3.717,8.156 4.135,8.139 4.554,8.12 5.007,8.069 5.496,7.982 5.983,7.894 6.481,7.754 6.987,7.563 7.493,7.371 7.946,7.091 8.35,6.725 8.749,6.358 9.082,5.896 9.343,5.339 9.605,4.78 9.734,4.101 9.734,3.298 9.734,2.408 9.582,1.675 9.276,1.099 8.972,0.523 8.589,0.057 8.127,-0.301 7.663,-0.659 7.152,-0.925 6.596,-1.099 6.036,-1.273 5.505,-1.396 4.998,-1.466 l 5.391,-8.897 H 8.428 L 3.22,-1.569 H 0 v -8.794 h -1.726 z"
           style="fill:#010101;fill-opacity:1;fill-rule:nonzero;stroke:none"
           id="path149" />
      </g>
      <g
         id="g151"
         transform="matrix(0.35277777,0,0,-0.35277777,-125.87745,-8.0888121)">
        <path
           d="m 0,0 h 1.727 v -16.958 h 8.634 v -1.57 H 0 Z"
           style="fill:#010101;fill-opacity:1;fill-rule:nonzero;stroke:none"
           id="path153" />
      </g>
      <g
         id="g155"
         transform="matrix(0.35277777,0,0,-0.35277777,-118.27929,-7.4239319)">
        <path
           d="m 0,0 -4.318,-10.153 h 8.505 z m -0.812,1.885 h 1.78 L 8.767,-16.643 H 6.83 l -2.016,4.92 h -9.812 l -2.095,-4.92 h -1.804 z"
           style="fill:#010101;fill-opacity:1;fill-rule:nonzero;stroke:none"
           id="path157" />
      </g>
      <g
         id="g159"
         transform="matrix(0.35277777,0,0,-0.35277777,-113.37797,-2.7623617)">
        <path
           d="M 0,0 C 0.453,-0.786 1.042,-1.371 1.767,-1.754 2.491,-2.139 3.314,-2.33 4.24,-2.33 c 0.576,0 1.116,0.087 1.622,0.263 0.507,0.173 0.948,0.417 1.323,0.731 0.375,0.315 0.67,0.694 0.889,1.139 0.218,0.445 0.328,0.947 0.328,1.504 0,0.646 -0.135,1.177 -0.407,1.597 C 7.725,3.323 7.362,3.666 6.909,3.937 6.456,4.208 5.945,4.439 5.378,4.632 4.812,4.822 4.228,5.015 3.626,5.206 3.022,5.398 2.438,5.617 1.872,5.86 1.305,6.106 0.794,6.424 0.341,6.815 c -0.453,0.394 -0.816,0.886 -1.086,1.479 -0.272,0.593 -0.404,1.326 -0.404,2.198 0,0.82 0.16,1.549 0.482,2.186 0.324,0.637 0.761,1.169 1.309,1.597 0.548,0.428 1.182,0.75 1.898,0.968 0.713,0.218 1.465,0.326 2.249,0.326 1.013,0 1.95,-0.178 2.815,-0.536 0.862,-0.358 1.609,-0.955 2.236,-1.792 L 8.35,12.167 C 7.913,12.777 7.402,13.237 6.818,13.542 6.233,13.847 5.539,14 4.738,14 4.179,14 3.647,13.925 3.142,13.777 2.635,13.629 2.194,13.411 1.819,13.123 1.444,12.835 1.144,12.473 0.917,12.036 0.69,11.6 0.576,11.085 0.576,10.492 0.576,9.569 0.812,8.857 1.283,8.359 1.754,7.864 2.343,7.47 3.05,7.182 3.755,6.894 4.524,6.642 5.353,6.424 6.181,6.206 6.949,5.913 7.654,5.547 8.362,5.181 8.951,4.67 9.421,4.016 9.894,3.361 10.128,2.459 10.128,1.307 10.128,0.47 9.972,-0.271 9.658,-0.917 9.343,-1.563 8.921,-2.107 8.388,-2.552 7.855,-2.997 7.241,-3.334 6.543,-3.561 5.846,-3.787 5.121,-3.899 4.372,-3.899 c -1.223,0 -2.347,0.213 -3.376,0.639 -1.03,0.428 -1.911,1.148 -2.643,2.161 z"
           style="fill:#010101;fill-opacity:1;fill-rule:nonzero;stroke:none"
           id="path161" />
      </g>
      <g
         id="g163"
         transform="matrix(0.35277777,0,0,-0.35277777,-107.72696,-8.0888121)">
        <path
           d="M 0,0 H 11.331 V -1.569 H 1.726 v -6.596 h 9.002 V -9.734 H 1.726 v -7.224 h 10.022 v -1.57 H 0 Z"
           style="fill:#010101;fill-opacity:1;fill-rule:nonzero;stroke:none"
           id="path165" />
      </g>
      <g
         id="g167"
         transform="matrix(0.35277777,0,0,-0.35277777,-100.95183,-5.208558)">
        <path
           d="m 0,0 h 3.664 c 0.907,0 1.644,0.112 2.212,0.341 0.567,0.227 1.008,0.504 1.321,0.837 0.314,0.33 0.528,0.688 0.642,1.073 0.112,0.384 0.17,0.733 0.17,1.047 0,0.313 -0.058,0.662 -0.17,1.046 C 7.725,4.728 7.511,5.085 7.197,5.418 6.884,5.748 6.443,6.028 5.876,6.254 5.308,6.481 4.571,6.595 3.664,6.595 H 0 Z M -1.726,8.165 H 3.142 C 3.385,8.165 3.718,8.156 4.135,8.139 4.554,8.12 5.007,8.069 5.496,7.982 5.983,7.894 6.481,7.754 6.987,7.563 7.494,7.371 7.947,7.091 8.35,6.725 8.75,6.358 9.082,5.896 9.343,5.339 9.605,4.78 9.734,4.101 9.734,3.298 9.734,2.408 9.582,1.675 9.277,1.099 8.972,0.523 8.589,0.057 8.127,-0.301 7.663,-0.659 7.152,-0.925 6.596,-1.099 6.036,-1.273 5.505,-1.396 4.999,-1.466 l 5.39,-8.897 H 8.428 L 3.22,-1.569 H 0 v -8.794 h -1.726 z"
           style="fill:#010101;fill-opacity:1;fill-rule:nonzero;stroke:none"
           id="path169" />
      </g>
      <g
         id="g171"
         transform="matrix(0.35277777,0,0,-0.35277777,-86.918932,-2.5777178)">
        <path
           d="m 0,0 c -0.89,-1.205 -1.919,-2.069 -3.089,-2.592 -1.169,-0.523 -2.433,-0.784 -3.795,-0.784 -1.413,0 -2.707,0.239 -3.885,0.718 -1.176,0.481 -2.185,1.152 -3.024,2.016 -0.836,0.865 -1.491,1.892 -1.961,3.088 -0.473,1.195 -0.707,2.5 -0.707,3.912 0,1.413 0.234,2.713 0.707,3.899 0.47,1.186 1.125,2.212 1.961,3.076 0.839,0.864 1.848,1.54 3.024,2.027 1.178,0.489 2.472,0.732 3.885,0.732 1.258,0 2.43,-0.222 3.52,-0.667 1.091,-0.445 2.047,-1.19 2.866,-2.236 l -1.413,-1.178 c -0.576,0.873 -1.313,1.508 -2.211,1.91 -0.899,0.401 -1.819,0.602 -2.762,0.602 -1.203,0 -2.29,-0.21 -3.258,-0.627 -0.967,-0.419 -1.791,-0.995 -2.473,-1.728 -0.68,-0.733 -1.203,-1.597 -1.57,-2.59 -0.366,-0.996 -0.548,-2.068 -0.548,-3.22 0,-1.152 0.182,-2.224 0.548,-3.219 0.367,-0.993 0.89,-1.857 1.57,-2.59 0.682,-0.733 1.506,-1.309 2.473,-1.729 0.968,-0.417 2.055,-0.627 3.258,-0.627 0.473,0 0.959,0.058 1.466,0.17 0.506,0.115 0.999,0.288 1.479,0.523 0.48,0.238 0.937,0.534 1.374,0.89 0.436,0.358 0.819,0.79 1.152,1.296 z"
           style="fill:#010101;fill-opacity:1;fill-rule:nonzero;stroke:none"
           id="path173" />
      </g>
      <g
         id="g175"
         transform="matrix(0.35277777,0,0,-0.35277777,-80.465921,-4.0540928)">
        <path
           d="m 0,0 c 0,-0.993 -0.114,-1.944 -0.341,-2.851 -0.226,-0.908 -0.605,-1.711 -1.139,-2.408 -0.532,-0.699 -1.229,-1.256 -2.092,-1.675 -0.865,-0.42 -1.924,-0.627 -3.18,-0.627 -1.256,0 -2.316,0.207 -3.181,0.627 -0.862,0.419 -1.561,0.976 -2.092,1.675 -0.532,0.697 -0.913,1.5 -1.138,2.408 -0.229,0.907 -0.341,1.858 -0.341,2.851 v 11.437 h 1.727 V 0.447 c 0,-0.665 0.061,-1.37 0.183,-2.12 0.121,-0.752 0.363,-1.449 0.721,-2.095 0.355,-0.646 0.861,-1.177 1.517,-1.597 0.654,-0.417 1.522,-0.627 2.604,-0.627 1.08,0 1.949,0.21 2.604,0.627 0.654,0.42 1.16,0.951 1.518,1.597 0.358,0.646 0.597,1.343 0.72,2.095 0.121,0.75 0.182,1.455 0.182,2.12 v 10.99 H 0 Z"
           style="fill:#010101;fill-opacity:1;fill-rule:nonzero;stroke:none"
           id="path177" />
      </g>
      <g
         id="g179"
         transform="matrix(0.35277777,0,0,-0.35277777,-76.653593,-7.535198)">
        <path
           d="M 0,0 H -6.333 V 1.569 H 8.061 V 0 H 1.728 V -16.958 H 0 Z"
           style="fill:#010101;fill-opacity:1;fill-rule:nonzero;stroke:none"
           id="path181" />
      </g>
      <g
         id="g183"
         transform="matrix(0.35277777,0,0,-0.35277777,-70.662227,-7.535198)">
        <path
           d="M 0,0 H -6.333 V 1.569 H 8.062 V 0 H 1.729 V -16.958 H 0 Z"
           style="fill:#010101;fill-opacity:1;fill-rule:nonzero;stroke:none"
           id="path185" />
      </g>
      <g
         id="g187"
         transform="matrix(0.35277777,0,0,-0.35277777,-66.119508,-8.0888121)">
        <path
           d="M 0,0 H 11.331 V -1.569 H 1.727 v -6.596 h 9.001 V -9.734 H 1.727 v -7.224 h 10.022 v -1.57 H 0 Z"
           style="fill:#010101;fill-opacity:1;fill-rule:nonzero;stroke:none"
           id="path189" />
      </g>
      <g
         id="g191"
         transform="matrix(0.35277777,0,0,-0.35277777,-59.343352,-5.208558)">
        <path
           d="M 0,0 H 3.664 C 4.57,0 5.308,0.112 5.875,0.341 6.443,0.568 6.884,0.845 7.197,1.178 7.511,1.508 7.725,1.866 7.839,2.251 7.951,2.635 8.008,2.984 8.008,3.298 8.008,3.611 7.951,3.96 7.839,4.344 7.725,4.728 7.511,5.085 7.197,5.418 6.884,5.748 6.443,6.028 5.875,6.254 5.308,6.481 4.57,6.595 3.664,6.595 H 0 Z M -1.726,8.165 H 3.141 C 3.385,8.165 3.717,8.156 4.135,8.139 4.554,8.12 5.007,8.069 5.496,7.982 5.983,7.894 6.481,7.754 6.987,7.563 7.493,7.371 7.946,7.091 8.35,6.725 8.749,6.358 9.082,5.896 9.343,5.339 9.605,4.78 9.734,4.101 9.734,3.298 9.734,2.408 9.582,1.675 9.276,1.099 8.972,0.523 8.589,0.057 8.127,-0.301 7.663,-0.659 7.152,-0.925 6.596,-1.099 6.036,-1.273 5.505,-1.396 4.999,-1.466 l 5.39,-8.897 H 8.428 L 3.22,-1.569 H 0 v -8.794 h -1.726 z"
           style="fill:#010101;fill-opacity:1;fill-rule:nonzero;stroke:none"
           id="path193" />
      </g>
      <g
         id="g195"
         transform="matrix(0.35277777,0,0,-0.35277777,-53.611066,-2.7623617)">
        <path
           d="M 0,0 C 0.453,-0.786 1.042,-1.371 1.767,-1.754 2.491,-2.139 3.314,-2.33 4.24,-2.33 c 0.576,0 1.116,0.087 1.622,0.263 0.507,0.173 0.948,0.417 1.323,0.731 0.375,0.315 0.67,0.694 0.889,1.139 0.218,0.445 0.328,0.947 0.328,1.504 0,0.646 -0.135,1.177 -0.407,1.597 C 7.725,3.323 7.362,3.666 6.909,3.937 6.456,4.208 5.945,4.439 5.378,4.632 4.812,4.822 4.228,5.015 3.626,5.206 3.022,5.398 2.438,5.617 1.872,5.86 1.305,6.106 0.794,6.424 0.341,6.815 c -0.453,0.394 -0.816,0.886 -1.086,1.479 -0.272,0.593 -0.404,1.326 -0.404,2.198 0,0.82 0.16,1.549 0.482,2.186 0.324,0.637 0.761,1.169 1.309,1.597 0.548,0.428 1.181,0.75 1.898,0.968 0.713,0.218 1.465,0.326 2.249,0.326 1.012,0 1.95,-0.178 2.815,-0.536 0.862,-0.358 1.609,-0.955 2.236,-1.792 L 8.35,12.167 C 7.913,12.777 7.402,13.237 6.818,13.542 6.233,13.847 5.539,14 4.738,14 4.179,14 3.647,13.925 3.141,13.777 2.635,13.629 2.194,13.411 1.819,13.123 1.444,12.835 1.144,12.473 0.917,12.036 0.69,11.6 0.576,11.085 0.576,10.492 0.576,9.569 0.812,8.857 1.283,8.359 1.754,7.864 2.343,7.47 3.05,7.182 3.755,6.894 4.524,6.642 5.353,6.424 6.181,6.206 6.949,5.913 7.654,5.547 8.362,5.181 8.95,4.67 9.421,4.016 9.894,3.361 10.128,2.459 10.128,1.307 10.128,0.47 9.972,-0.271 9.658,-0.917 9.343,-1.563 8.921,-2.107 8.388,-2.552 7.855,-2.997 7.241,-3.334 6.543,-3.561 5.846,-3.787 5.121,-3.899 4.372,-3.899 c -1.223,0 -2.347,0.213 -3.377,0.639 -1.029,0.428 -1.91,1.148 -2.642,2.161 z"
           style="fill:#010101;fill-opacity:1;fill-rule:nonzero;stroke:none"
           id="path197" />
      </g>
      <g
         id="g199"
         transform="matrix(0.35277777,0,0,-0.35277777,-220.75245,-35.082168)">
        <path
           d="M 0,0 C 2.375,7.245 8.133,4.079 8.133,4.079 5.964,-0.168 0,0 0,0 m 39.803,0.467 c 0,0 -2.574,4.95 -8.109,7.985 -4.214,2.311 -8.039,2.964 -9.909,3.154 -0.654,2.775 3.649,5.185 3.649,5.185 0,0 -2.975,-0.707 -4.176,-1.569 -1.003,-0.724 -2.325,-1.899 -3.044,-2.929 -0.745,-1.076 -0.519,-0.589 -1.734,-0.64 -0.51,-0.016 -0.856,-0.018 -1.262,-0.025 0.032,0.305 0.368,0.922 0.541,1.164 l 1.035,1.525 c 0.135,0.178 0.271,0.326 0.421,0.505 l 0.908,0.941 c 1.084,0.987 2.208,2.024 3.462,2.801 0.114,0.071 0.158,0.09 0.255,0.174 0.111,0.1 -4.149,-1.554 -5.502,-2.4 -2.08,-1.29 -3.956,-2.831 -5.533,-4.692 C 10.371,11.125 10.17,11.182 9.341,11.031 4.06,12.641 -1.262,11.235 -1.708,6.392 -1.826,5.056 -1.25,5.832 -2.147,4.455 l -2.407,-4.15 c -0.203,-0.41 -1.36,-1.916 -1.687,-2.292 -0.553,-0.649 -1.982,-2.021 -2.751,-2.397 -0.352,0.123 -0.737,0.195 -1.144,0.195 -1.416,0 -2.54,-0.844 -2.789,-1.936 -0.404,-0.32 -0.887,-0.529 -1.49,-0.513 -0.353,0.596 -0.828,0.994 -1.394,1.069 -1.411,0.185 -2.816,-1.647 -3.138,-4.093 -0.295,-2.243 0.43,-4.205 1.641,-4.66 0.293,-0.181 0.629,-0.326 1.043,-0.4 0.349,-0.36 1.497,-1.99 1.66,-1.795 0,0 -1.344,1.628 0.897,2.149 0.31,0.074 1.995,0.409 2.166,0.514 0.163,-0.948 2.101,-2.454 3.031,-2.58 -0.814,1.13 -1.506,2.539 -0.532,3.411 0.389,0.352 1.937,1.05 2.493,1.387 1.34,0.816 2.472,2.605 3.887,3.758 1.935,1.563 5.919,3.598 8.203,3.476 C 6.299,-4.439 7.65,-5.053 8.091,-5.6 L 5.433,-7.153 C 5.176,-7.312 5.016,-7.372 4.758,-7.516 4.5,-7.66 4.331,-7.78 4.074,-7.939 2.579,-8.874 1.286,-10.046 0.011,-11.247 l -1.554,-1.617 c -1.9,-2.267 -2.854,-4.87 -5.611,-6.01 -0.87,-0.366 -3.862,-0.382 -5.056,-0.491 0.289,-0.365 1.54,-1.033 2.082,-1.195 1.484,-0.436 3.496,-0.836 5.052,-0.573 1.409,0.234 2.892,0.633 4.158,1.717 1.264,1.084 2.144,2.602 2.638,3.118 0.643,0.672 1.343,1.642 1.991,2.123 l 2.132,1.383 c 1.327,0.8 3.402,1.652 5.399,1.383 3.231,-0.427 4.058,-1.737 6.917,0.753 0.516,0.453 7.58,10.655 1.898,0.489 l -0.818,-1.481 c 0,0 0.852,-0.382 1.464,-1.802 0.704,-1.607 0.174,-3.387 -0.639,-4.711 l -0.745,-1.227 c -4.647,-6.987 -11.755,-14.668 -28.292,-13.041 -10.43,1.026 -17.738,13.148 -19.347,17.519 -1.616,4.384 -2.434,9.189 -2.434,14.278 0,5.09 0.818,9.893 2.434,14.278 1.61,4.371 3.94,8.216 6.924,11.43 2.979,3.209 6.644,5.767 10.894,7.605 4.251,1.838 9.095,2.77 14.401,2.77 2.214,0 4.501,-0.252 6.798,-0.75 2.31,-0.502 4.552,-1.203 6.661,-2.085 2.104,-0.881 4.08,-1.965 5.871,-3.221 1.43,-1.005 2.694,-2.09 3.771,-3.233 l -3.478,-3.626 c 0.668,-0.083 6.568,-0.172 10.601,-1.335 2.461,-0.709 4.755,-1.637 6.294,-2.547 l 3.807,-2.248 -2.334,3.755 c -0.927,1.49 -1.862,3.508 -2.635,5.685 -1.438,4.053 -2.099,10.906 -2.099,10.906 L 34.161,33.631 C 26.386,41.022 16.21,44.768 3.899,44.768 c -6.544,0 -12.636,-1.15 -18.106,-3.419 -5.476,-2.271 -10.226,-5.461 -14.121,-9.479 -3.894,-4.014 -6.978,-8.843 -9.166,-14.352 -2.184,-5.503 -3.292,-11.611 -3.292,-18.15 0,-6.541 1.108,-12.666 3.291,-18.206 2.187,-5.548 5.271,-10.397 9.167,-14.416 3.897,-4.021 8.651,-7.191 14.128,-9.422 5.387,-2.273 12.555,-2.273 17.885,-2.273 5.48,0 10.859,0.577 16.142,1.728 1.957,0.427 3.882,1 5.788,1.658 l 0.097,0.004 0.272,0.119 c 2.588,0.914 6.189,2.878 7.482,3.815 1.292,0.937 3.966,3.241 4.773,5.935 0.347,1.146 0.576,2.266 0.787,3.58 0.19,1.222 0.373,2.834 0.259,4.089 1.111,-0.14 1.96,-2.998 2.075,-4.252 0.123,-1.51 0.156,-2.862 0.941,-0.246 2.973,9.934 -0.557,23.912 -8.036,32.155 3.619,-0.299 5.538,-3.169 5.538,-3.169"
           style="fill:#57182d;fill-opacity:1;fill-rule:nonzero;stroke:none"
           id="path201" />
      </g>
    </g>
  </g>
</svg>
